<?xml version="1.0" encoding="UTF-8" standalone="no"?>
<svg
   xmlns:dc="http://purl.org/dc/elements/1.1/"
   xmlns:cc="http://creativecommons.org/ns#"
   xmlns:rdf="http://www.w3.org/1999/02/22-rdf-syntax-ns#"
   xmlns:svg="http://www.w3.org/2000/svg"
   xmlns="http://www.w3.org/2000/svg"
   xmlns:xlink="http://www.w3.org/1999/xlink"
   xmlns:sodipodi="http://sodipodi.sourceforge.net/DTD/sodipodi-0.dtd"
   xmlns:inkscape="http://www.inkscape.org/namespaces/inkscape"
   height="60"
   width="60"
   _SVGFile__filename="oldscale/actions/math_paren.svg"
   version="1.0"
   y="0"
   x="0"
   id="svg1"
   sodipodi:version="0.32"
   inkscape:version="0.48.4 r9939"
   sodipodi:docname="math_paren.svgz">
  <sodipodi:namedview
     id="base"
     pagecolor="#ffffff"
     bordercolor="#666666"
     borderopacity="1.0"
     inkscape:pageopacity="0.0"
     inkscape:pageshadow="2"
     inkscape:zoom="3.3192107"
     inkscape:cx="112.86204"
     inkscape:cy="4.6066114"
     inkscape:window-width="1024"
     inkscape:window-height="699"
     inkscape:window-x="0"
     inkscape:window-y="0"
     inkscape:current-layer="svg1"
     showgrid="false"
     inkscape:window-maximized="0" />
  <defs
     id="defs3">
    <linearGradient
       id="linearGradient900">
      <stop
         style="stop-color: #000000;stop-opacity: 1.0;"
         id="stop901"
         offset="0" />
      <stop
         style="stop-color:#ffffff;stop-opacity:1;"
         id="stop902"
         offset="1" />
    </linearGradient>
    <linearGradient
       xlink:href="#linearGradient900"
       id="linearGradient903" />
    <linearGradient
       xlink:href="#linearGradient900"
       id="linearGradient904" />
    <linearGradient
       xlink:href="#linearGradient900"
       id="linearGradient905" />
    <linearGradient
       xlink:href="#linearGradient900"
       id="linearGradient906" />
    <linearGradient
       xlink:href="#linearGradient900"
       id="linearGradient907" />
  </defs>
  <path
     id="path1095"
     style="font-size:12.000000;font-weight:900;fill:none;fill-opacity:1.0000000;stroke-width:5.0000000;font-family:VAG Rounded Black SSi;stroke:#ffffff;stroke-opacity:1.0000000;stroke-linejoin:round;stroke-miterlimit:4.0000000;stroke-dasharray:none;"
     d="M 56.875000,29.958117 C 56.875000,34.053357 56.539947,37.934526 55.869841,41.601626 C 55.199687,45.250112 54.334105,48.386693 53.273048,51.011368 C 52.602942,52.649464 51.942128,53.868731 51.290606,54.669165 C 50.639085,55.469595 49.773503,55.869815 48.693861,55.869815 C 47.558369,55.869815 46.609012,55.534747 45.845790,54.864617 C 45.101201,54.194487 44.728931,53.310287 44.728931,52.212022 C 44.728931,51.970027 45.008134,50.964834 45.566587,49.196434 C 46.124993,47.446652 46.636937,45.724786 47.102275,44.030849 C 47.567661,42.336908 47.995782,40.270673 48.386685,37.832142 C 48.777636,35.393617 48.973064,32.768937 48.973064,29.958117 C 48.973064,26.588849 48.675229,23.405734 48.079557,20.408760 C 47.483886,17.393177 46.776515,14.582352 45.957491,11.976290 C 45.138419,9.3702287 44.728931,7.9555096 44.728931,7.7321329 C 44.728931,6.6338629 45.101201,5.7589744 45.845790,5.1074579 C 46.590379,4.4559413 47.539736,4.1301854 48.693861,4.1301854 C 49.792136,4.1301854 50.667010,4.5304002 51.318531,5.3308346 C 51.970053,6.1126506 52.621574,7.3319181 53.273048,8.9886274 C 54.334105,11.576075 55.199687,14.703350 55.869841,18.370449 C 56.539947,22.037549 56.875000,25.900105 56.875000,29.958117 z M 17.002276,38.139290 L 24.597084,29.958117 L 19.989939,24.987985 C 18.873055,23.796642 18.119159,22.986901 17.728251,22.558761 C 17.355957,22.112008 17.067428,21.674561 16.862665,21.246426 C 16.657902,20.799673 16.555522,20.297074 16.555522,19.738630 C 16.555522,18.398370 16.992969,17.290798 17.867862,16.415904 C 18.742751,15.541011 19.729335,15.103564 20.827600,15.103564 C 21.888643,15.103564 22.726304,15.252482 23.340589,15.550318 C 23.954874,15.848153 24.587777,16.425211 25.239293,17.281491 L 29.986045,23.228891 L 34.732801,17.281491 C 35.421544,16.425211 36.063754,15.848153 36.659425,15.550318 C 37.255097,15.252482 38.083451,15.103564 39.144489,15.103564 C 40.242759,15.103564 41.229339,15.531704 42.104232,16.387979 C 42.979125,17.244259 43.416596,18.361142 43.416596,19.738630 C 43.416596,20.297074 43.314188,20.799673 43.109425,21.246426 C 42.904666,21.674561 42.606831,22.112008 42.215918,22.558761 C 41.843623,22.986901 41.099034,23.796642 39.982151,24.987985 L 35.375011,29.958117 L 42.969818,38.139290 C 43.453813,38.660502 43.863349,39.228248 44.198402,39.842533 C 44.552088,40.438204 44.728931,41.145566 44.728931,41.964614 C 44.728931,43.323488 44.291470,44.421757 43.416596,45.259419 C 42.541679,46.078467 41.462022,46.487993 40.177607,46.487993 C 39.339946,46.487993 38.651202,46.311150 38.111372,45.957474 C 37.590159,45.603793 36.957261,45.017429 36.212672,44.198381 L 29.986045,36.826950 L 23.759422,44.198381 C 23.107906,44.942970 22.493621,45.510721 21.916563,45.901629 C 21.339506,46.292537 20.632148,46.487993 19.794482,46.487993 C 18.510067,46.487993 17.430416,46.078467 16.555522,45.259419 C 15.680629,44.421757 15.243183,43.323488 15.243183,41.964614 C 15.243183,41.164179 15.392100,40.484743 15.689936,39.926303 C 16.006390,39.367859 16.443832,38.772188 17.002276,38.139290 z M 3.1250000,29.958117 C 3.1250000,27.333438 3.2832247,24.690149 3.5996738,22.028242 C 3.9161229,19.366335 4.3442628,16.946423 4.8840885,14.768502 C 5.4425327,12.590575 6.0568179,10.663955 6.7269479,8.9886274 C 7.4529229,7.2574592 8.1230529,6.0195782 8.7373380,5.2749892 C 9.3516229,4.5117867 10.207902,4.1301854 11.306168,4.1301854 C 12.478896,4.1301854 13.428249,4.4559413 14.154224,5.1074579 C 14.880195,5.7589744 15.243183,6.6338629 15.243183,7.7321329 C 15.243183,7.9555096 14.833661,9.3702287 14.014613,11.976290 C 13.195565,14.582352 12.488203,17.393177 11.892532,20.408760 C 11.296861,23.405734 10.999025,26.588849 10.999025,29.958117 C 10.999025,32.582792 11.194482,35.160934 11.585390,37.692536 C 11.976298,40.224139 12.404438,42.336908 12.869804,44.030849 C 13.335176,45.724786 13.847077,47.428034 14.405521,49.140588 C 14.963965,50.853143 15.243183,51.876954 15.243183,52.212022 C 15.243183,53.310287 14.870888,54.194487 14.126299,54.864617 C 13.381710,55.534747 12.441669,55.869815 11.306168,55.869815 C 10.226516,55.869815 9.3795429,55.488213 8.7652580,54.725006 C 8.1509729,53.980417 7.4715370,52.742541 6.7269479,51.011368 C 6.2057350,49.652494 5.7310568,48.228468 5.3029217,46.739290 C 4.8933954,45.268726 4.5117941,43.593403 4.1581132,41.713317 C 3.8230505,39.814612 3.5624420,37.869374 3.3762970,35.877598 C 3.2087657,33.867207 3.1250000,31.894049 3.1250000,29.958117 z " />
  <path
     id="path836"
     style="font-size:12.000000;font-weight:900;fill:#000000;fill-opacity:1.0000000;stroke-width:1.0000000;font-family:VAG Rounded Black SSi"
     d="M 56.875000,29.958117 C 56.875000,34.053357 56.539947,37.934526 55.869841,41.601626 C 55.199687,45.250112 54.334105,48.386693 53.273048,51.011368 C 52.602942,52.649464 51.942128,53.868731 51.290606,54.669165 C 50.639085,55.469595 49.773503,55.869815 48.693861,55.869815 C 47.558369,55.869815 46.609012,55.534747 45.845790,54.864617 C 45.101201,54.194487 44.728931,53.310287 44.728931,52.212022 C 44.728931,51.970027 45.008134,50.964834 45.566587,49.196434 C 46.124993,47.446652 46.636937,45.724786 47.102275,44.030849 C 47.567661,42.336908 47.995782,40.270673 48.386685,37.832142 C 48.777636,35.393617 48.973064,32.768937 48.973064,29.958117 C 48.973064,26.588849 48.675229,23.405734 48.079557,20.408760 C 47.483886,17.393177 46.776515,14.582352 45.957491,11.976290 C 45.138419,9.3702287 44.728931,7.9555096 44.728931,7.7321329 C 44.728931,6.6338629 45.101201,5.7589744 45.845790,5.1074579 C 46.590379,4.4559413 47.539736,4.1301854 48.693861,4.1301854 C 49.792136,4.1301854 50.667010,4.5304002 51.318531,5.3308346 C 51.970053,6.1126506 52.621574,7.3319181 53.273048,8.9886274 C 54.334105,11.576075 55.199687,14.703350 55.869841,18.370449 C 56.539947,22.037549 56.875000,25.900105 56.875000,29.958117 z M 17.002276,38.139290 L 24.597084,29.958117 L 19.989939,24.987985 C 18.873055,23.796642 18.119159,22.986901 17.728251,22.558761 C 17.355957,22.112008 17.067428,21.674561 16.862665,21.246426 C 16.657902,20.799673 16.555522,20.297074 16.555522,19.738630 C 16.555522,18.398370 16.992969,17.290798 17.867862,16.415904 C 18.742751,15.541011 19.729335,15.103564 20.827600,15.103564 C 21.888643,15.103564 22.726304,15.252482 23.340589,15.550318 C 23.954874,15.848153 24.587777,16.425211 25.239293,17.281491 L 29.986045,23.228891 L 34.732801,17.281491 C 35.421544,16.425211 36.063754,15.848153 36.659425,15.550318 C 37.255097,15.252482 38.083451,15.103564 39.144489,15.103564 C 40.242759,15.103564 41.229339,15.531704 42.104232,16.387979 C 42.979125,17.244259 43.416596,18.361142 43.416596,19.738630 C 43.416596,20.297074 43.314188,20.799673 43.109425,21.246426 C 42.904666,21.674561 42.606831,22.112008 42.215918,22.558761 C 41.843623,22.986901 41.099034,23.796642 39.982151,24.987985 L 35.375011,29.958117 L 42.969818,38.139290 C 43.453813,38.660502 43.863349,39.228248 44.198402,39.842533 C 44.552088,40.438204 44.728931,41.145566 44.728931,41.964614 C 44.728931,43.323488 44.291470,44.421757 43.416596,45.259419 C 42.541679,46.078467 41.462022,46.487993 40.177607,46.487993 C 39.339946,46.487993 38.651202,46.311150 38.111372,45.957474 C 37.590159,45.603793 36.957261,45.017429 36.212672,44.198381 L 29.986045,36.826950 L 23.759422,44.198381 C 23.107906,44.942970 22.493621,45.510721 21.916563,45.901629 C 21.339506,46.292537 20.632148,46.487993 19.794482,46.487993 C 18.510067,46.487993 17.430416,46.078467 16.555522,45.259419 C 15.680629,44.421757 15.243183,43.323488 15.243183,41.964614 C 15.243183,41.164179 15.392100,40.484743 15.689936,39.926303 C 16.006390,39.367859 16.443832,38.772188 17.002276,38.139290 z M 3.1250000,29.958117 C 3.1250000,27.333438 3.2832247,24.690149 3.5996738,22.028242 C 3.9161229,19.366335 4.3442628,16.946423 4.8840885,14.768502 C 5.4425327,12.590575 6.0568179,10.663955 6.7269479,8.9886274 C 7.4529229,7.2574592 8.1230529,6.0195782 8.7373380,5.2749892 C 9.3516229,4.5117867 10.207902,4.1301854 11.306168,4.1301854 C 12.478896,4.1301854 13.428249,4.4559413 14.154224,5.1074579 C 14.880195,5.7589744 15.243183,6.6338629 15.243183,7.7321329 C 15.243183,7.9555096 14.833661,9.3702287 14.014613,11.976290 C 13.195565,14.582352 12.488203,17.393177 11.892532,20.408760 C 11.296861,23.405734 10.999025,26.588849 10.999025,29.958117 C 10.999025,32.582792 11.194482,35.160934 11.585390,37.692536 C 11.976298,40.224139 12.404438,42.336908 12.869804,44.030849 C 13.335176,45.724786 13.847077,47.428034 14.405521,49.140588 C 14.963965,50.853143 15.243183,51.876954 15.243183,52.212022 C 15.243183,53.310287 14.870888,54.194487 14.126299,54.864617 C 13.381710,55.534747 12.441669,55.869815 11.306168,55.869815 C 10.226516,55.869815 9.3795429,55.488213 8.7652580,54.725006 C 8.1509729,53.980417 7.4715370,52.742541 6.7269479,51.011368 C 6.2057350,49.652494 5.7310568,48.228468 5.3029217,46.739290 C 4.8933954,45.268726 4.5117941,43.593403 4.1581132,41.713317 C 3.8230505,39.814612 3.5624420,37.869374 3.3762970,35.877598 C 3.2087657,33.867207 3.1250000,31.894049 3.1250000,29.958117 z " />
  <metadata
     id="metadata13">
    <rdf:RDF>
      <Work
         rdf:about=""
         id="Work16">
        <dc:title>Part of the Flat Icon Collection (Thu Aug 26 14:38:01 2004)</dc:title>
        <dc:description />
        <dc:subject>
          <rdf:Bag>
            <rdf:li />
          </rdf:Bag>
        </dc:subject>
        <dc:publisher>
          <Agent
             rdf:about=""
             id="Agent18">
            <dc:title />
          </Agent>
        </dc:publisher>
        <dc:creator>
          <Agent
             rdf:about=""
             id="Agent20">
            <dc:title>Danny Allen</dc:title>
          </Agent>
        </dc:creator>
        <dc:rights>
          <Agent
             rdf:about=""
             id="Agent22">
            <dc:title>Danny Allen</dc:title>
          </Agent>
        </dc:rights>
        <dc:date />
        <dc:format>image/svg+xml</dc:format>
        <dc:type
           rdf:resource="http://purl.org/dc/dcmitype/StillImage" />
        <license
           rdf:resource="http://creativecommons.org/licenses/LGPL/2.1/"
           id="license24">
          <dc:date />
        </license>
        <dc:language>en</dc:language>
      </Work>
      <cc:Work
         rdf:about="">
        <dc:format>image/svg+xml</dc:format>
        <dc:type
           rdf:resource="http://purl.org/dc/dcmitype/StillImage" />
        <dc:title></dc:title>
      </cc:Work>
    </rdf:RDF>
  </metadata>
</svg>
