<?xml version="1.0" encoding="UTF-8" standalone="no"?>
<!-- Created with Inkscape (http://www.inkscape.org/) -->

<svg
   xmlns:dc="http://purl.org/dc/elements/1.1/"
   xmlns:cc="http://creativecommons.org/ns#"
   xmlns:rdf="http://www.w3.org/1999/02/22-rdf-syntax-ns#"
   xmlns:svg="http://www.w3.org/2000/svg"
   xmlns="http://www.w3.org/2000/svg"
   xmlns:sodipodi="http://sodipodi.sourceforge.net/DTD/sodipodi-0.dtd"
   xmlns:inkscape="http://www.inkscape.org/namespaces/inkscape"
   width="210mm"
   height="100mm"
   viewBox="0 0 744.09449 354.33071"
   id="svg2"
   version="1.1"
   inkscape:version="0.91 r13725"
   sodipodi:docname="cumshot.svg">
  <defs
     id="defs4" />
  <sodipodi:namedview
     id="base"
     pagecolor="#ffffff"
     bordercolor="#666666"
     borderopacity="1.0"
     inkscape:pageopacity="0.0"
     inkscape:pageshadow="2"
     inkscape:zoom="1.051483"
     inkscape:cx="171.8008"
     inkscape:cy="228.54219"
     inkscape:document-units="px"
     inkscape:current-layer="layer1"
     showgrid="false"
     inkscape:window-width="1920"
     inkscape:window-height="1015"
     inkscape:window-x="-2"
     inkscape:window-y="-3"
     inkscape:window-maximized="1"
     inkscape:snap-page="true"
     height="210mm" />
  <metadata
     id="metadata7">
    <rdf:RDF>
      <cc:Work
         rdf:about="">
        <dc:format>image/svg+xml</dc:format>
        <dc:type
           rdf:resource="http://purl.org/dc/dcmitype/StillImage" />
        <dc:title></dc:title>
      </cc:Work>
    </rdf:RDF>
  </metadata>
  <g
     inkscape:label="Ebene 1"
     inkscape:groupmode="layer"
     id="layer1"
     transform="translate(0,-698.0315)">
    <ellipse
       style="fill:#ffff00;stroke:#000000;stroke-width:7.31099844;stroke-miterlimit:4;stroke-dasharray:none;stroke-opacity:1"
       id="path4016"
       ry="113.83596"
       rx="170.56848"
       cy="875.17609"
       cx="208.09315" />
    <path
       style="fill:#00ff00;stroke-width:3.51099992;stroke-miterlimit:4;stroke-dasharray:none"
       id="path4038"
       d="m 84.260999,839.84061 c 1.838646,-1.30044 3.780868,-2.49953 5.747271,-3.66789 2.380738,-1.46052 4.718328,-2.95585 7.213898,-4.28604 0.43903,-0.21279 0.87366,-0.43171 1.31708,-0.63837 2.550752,-1.1888 5.095252,-2.38685 7.665212,-3.54789 1.91927,-0.86707 4.0307,-1.49431 6.07113,-2.14008 3.46879,-1.08999 7.1283,-1.73273 10.7706,-2.30909 3.1924,-0.5982 6.44386,-0.86212 9.70773,-1.00312 2.86852,-0.0938 5.64871,0.28632 8.35471,1.03633 2.3557,0.6938 4.44394,1.82334 6.35064,3.12696 1.40367,1.14943 2.80465,2.32559 3.87894,3.69599 1.08019,1.32089 1.83381,2.7667 2.31532,4.29871 0.4723,1.32546 0.72425,2.69005 0.86395,4.0626 0.0521,0.56702 0.0728,1.13535 0.0927,1.70354 0,0 -6.60068,2.75269 -6.60068,2.75269 l 0,0 c -0.009,-0.56029 -0.0183,-1.12074 -0.059,-1.68027 -0.1147,-1.34475 -0.32243,-2.68415 -0.78853,-3.98216 -0.43074,-1.47749 -1.14856,-2.86517 -2.20164,-4.12575 -1.03225,-1.31497 -2.37441,-2.45696 -3.73219,-3.55166 -1.85837,-1.24416 -3.88147,-2.31933 -6.17854,-2.94856 -2.66167,-0.67453 -5.38334,-1.00217 -8.17916,-0.86653 -3.23022,0.15659 -6.44052,0.46838 -9.60308,1.04283 -3.63351,0.5999 -7.27297,1.27322 -10.71832,2.41033 -1.53426,0.4993 -3.05885,1.00669 -4.54742,1.59245 -0.49518,0.19485 -1.94025,0.84127 -1.47337,0.6046 1.89076,-0.95845 7.36659,-3.47487 3.4933,-1.68976 -2.51379,1.29755 -4.868742,2.7579 -7.211512,4.2505 -1.94195,1.13609 -3.87302,2.29587 -5.663983,3.58779 0,0 -6.885056,2.27185 -6.885056,2.27185 z"
       inkscape:connector-curvature="0" />
    <path
       style="fill:#00ff00;stroke-width:3.51099992;stroke-miterlimit:4;stroke-dasharray:none"
       id="path4040"
       d="m 194.41423,837.76839 c 1.98934,-1.09364 3.88576,-2.2932 5.86101,-3.40348 2.06701,-1.22941 4.13227,-2.43931 6.32797,-3.51308 4.42718,-2.35748 9.20561,-4.16123 13.92178,-6.0742 2.24723,-0.88418 4.56973,-1.62735 6.84897,-2.45257 1.39306,-0.45797 2.81961,-0.87687 4.27641,-1.18131 1.6106,-0.33718 3.20036,0.1014 4.74526,0.46083 2.64869,0.60026 5.17256,1.49921 7.64997,2.45914 1.93907,0.74627 3.75146,1.69429 5.49483,2.70718 1.13846,0.59243 2.06133,1.31709 2.89938,2.16979 0.7301,0.81818 1.34374,1.69952 2.05075,2.52884 0.89319,0.86525 1.70124,1.78191 2.49343,2.70974 0.59447,0.77598 1.04185,1.62155 1.4945,2.45701 0.33334,0.90085 0.75522,1.76223 1.24542,2.61365 0.21114,0.49374 0.48165,0.96806 0.73279,1.44863 0,0 -6.47513,2.9555 -6.47513,2.9555 l 0,0 c -0.24086,-0.47545 -0.50613,-0.94281 -0.71192,-1.42955 -0.49174,-0.85507 -0.97274,-1.70465 -1.26707,-2.62145 -0.42765,-0.80215 -0.86179,-1.60985 -1.41422,-2.36038 -0.78608,-0.93049 -1.58768,-1.84937 -2.48242,-2.7133 -0.69872,-0.81723 -1.32269,-1.67622 -2.04118,-2.48392 -0.79798,-0.80145 -1.69179,-1.47777 -2.75765,-2.04758 -1.70494,-0.99107 -3.47066,-1.92261 -5.37247,-2.64604 -2.45174,-0.94787 -4.96022,-1.81305 -7.59875,-2.35552 -1.5241,-0.30804 -3.03388,-0.59883 -4.57064,-0.16705 -1.41034,0.34961 -2.81577,0.72395 -4.16242,1.21587 -2.27425,0.80021 -4.57475,1.55414 -6.79421,2.45396 -2.60694,1.0534 -12.73894,5.28328 -1.36951,0.20733 -2.20008,1.05891 -4.31598,2.19129 -6.32966,3.47581 -1.97759,1.07466 -3.86377,2.25127 -5.78896,3.38589 0,0 -6.90626,2.20026 -6.90626,2.20026 z"
       inkscape:connector-curvature="0" />
    <path
       style="fill:#280b0b;stroke-width:3.51099992;stroke-miterlimit:4;stroke-dasharray:none"
       id="path4056"
       d="m 117.29043,841.14159 c 2.13606,-0.30325 4.29316,-0.46127 6.45515,-0.57193 1.55427,-0.0419 3.18283,-0.26374 4.63837,0.27276 0.91162,0.44504 1.52909,1.09487 2.08341,1.81436 0.34498,0.62794 0.7704,1.24961 0.67504,1.95094 -1.63263,2.89482 -5.63958,3.44736 -8.94358,3.50604 -1.04974,-0.13079 -2.08182,-0.27027 -3.09898,-0.51644 -0.99662,-0.19116 -2.00452,-0.27464 -3.00651,-0.44667 -0.85337,-0.12896 -1.71919,-0.17578 -2.58392,-0.21887 0,0 6.02552,-3.51134 6.02552,-3.51134 l 0,0 c 0.89011,0.0591 1.78041,0.12597 2.65631,0.27431 1.01466,0.16529 2.05494,0.21862 3.04459,0.47958 0.96011,0.2109 1.95989,0.33973 2.95345,0.36507 0.36147,-0.0177 0.73942,-0.0286 1.09797,-0.0761 0.15872,-0.021 0.3174,-0.0463 0.47102,-0.085 0.1215,-0.0306 0.45991,-0.17552 0.3508,-0.1223 -6.00255,2.92798 -8.37498,3.2331 -5.7632,2.86503 0.0675,-0.0272 0.15271,-0.0357 0.20262,-0.0817 0.18997,-0.17501 -0.4228,-1.086 -0.51728,-1.33167 -0.46895,-0.61066 -0.97353,-1.17622 -1.80443,-1.48658 -1.43835,-0.31356 -2.93971,-0.13501 -4.40815,-0.0969 -2.16129,0.11893 -4.3243,0.29097 -6.44141,0.67906 0,0 5.91321,-3.66164 5.91321,-3.66164 z"
       inkscape:connector-curvature="0" />
    <path
       style="fill:#280b0b;stroke-width:3.51099992;stroke-miterlimit:4;stroke-dasharray:none"
       id="path4058"
       d="m 222.94905,840.29653 c 2.17192,0.53653 4.43321,0.76692 6.6464,1.16301 1.72083,0.28998 3.46656,0.52327 5.1412,0.96639 1.22503,0.43916 2.46123,0.85643 3.71339,1.24276 0.69518,0.41969 1.81281,0.45608 2.35959,1.04534 0.10517,0.11334 0.15218,0.25566 0.22828,0.3835 0.0756,0.37007 0.0656,0.80503 -0.39361,1.03031 -4.38437,2.15073 -4.76741,2.91076 -8.06385,3.42313 -1.65251,0.16208 -3.31911,0.17188 -4.98118,0.18201 -1.46092,0.0703 -2.88527,-0.0236 -4.32256,-0.21744 -1.00179,0.0174 -1.78588,-0.41003 -2.67457,-0.70063 -0.6811,-0.35423 -1.3946,-0.67223 -2.04944,-1.05593 -0.72604,-0.33403 -1.55056,-0.50917 -2.29024,-0.82377 -0.74779,-0.28097 -1.55252,-0.39013 -2.32972,-0.60504 -0.51126,-0.1093 -0.2522,-0.0617 -0.77728,-0.14219 0,0 6.11998,-3.45443 6.11998,-3.45443 l 0,0 c 0.55743,0.11802 0.28357,0.054 0.82184,0.19127 0.79768,0.21292 1.63795,0.32473 2.37773,0.66762 0.79725,0.27436 1.62536,0.51464 2.35654,0.89668 0.64924,0.32895 1.26909,0.69785 1.96316,0.96363 0.8329,0.30399 1.63503,0.54864 2.56309,0.58541 1.39772,0.18008 2.79996,0.18867 4.21369,0.15321 1.63849,-0.0206 3.29518,-0.024 4.90451,-0.30479 0.20152,-0.0483 0.40723,-0.0864 0.60455,-0.14508 0.18661,-0.0556 0.71508,-0.28024 0.5448,-0.19689 -1.95409,0.95647 -3.94428,1.86343 -5.89975,2.81801 -0.20121,0.0982 0.44803,-0.11869 0.65678,-0.20583 0.0555,-0.0232 0.0975,-0.0635 0.14627,-0.0952 -0.0832,-0.41459 -1.79784,-0.79303 -2.23134,-1.02926 -1.23085,-0.3984 -2.45362,-0.81247 -3.6878,-1.2037 -1.66255,-0.38853 -3.35216,-0.68133 -5.04754,-0.95712 -2.25374,-0.3895 -4.54514,-0.64845 -6.75863,-1.17977 0,0 6.14571,-3.39523 6.14571,-3.39523 z"
       inkscape:connector-curvature="0" />
    <path
       style="fill:#280b0b;stroke-width:3.51099992;stroke-miterlimit:4;stroke-dasharray:none"
       id="path4060"
       d="m 120.27961,846.96 c -1.62053,0.1296 -3.22727,0.2741 -4.85203,0.14819 -1.03016,-0.11134 -2.06522,-0.17442 -3.10329,-0.20452 -0.92361,0.0595 -1.79175,-0.18866 -2.69175,-0.30668 -0.14282,-0.0136 -0.28565,-0.0272 -0.42848,-0.0409 0,0 6.0824,-3.49398 6.0824,-3.49398 l 0,0 c 0.14863,0.0196 0.29726,0.0392 0.44588,0.0589 0.87205,0.13884 1.73305,0.27669 2.62895,0.24607 1.03664,0.0481 2.06736,0.14059 3.09981,0.22838 1.60024,0.072 3.1928,-0.0985 4.78101,-0.24538 0,0 -5.9625,3.61006 -5.9625,3.61006 z"
       inkscape:connector-curvature="0" />
    <path
       style="fill:#ffff00;stroke-width:3.51099992;stroke-miterlimit:4;stroke-dasharray:none"
       id="path4062"
       d="m 158.40573,887.10745 c 1.66404,1.54921 3.62514,2.85123 5.61587,4.10834 2.09672,1.32485 4.40116,2.37963 6.75325,3.3662 2.4112,0.91445 4.96642,1.44162 7.5547,1.88763 2.55772,0.47159 5.15508,0.29583 7.69384,-0.14198 1.09296,-0.2161 2.15617,-0.5223 3.15594,-0.94359 0.28169,-0.1187 1.10102,-0.51329 0.82542,-0.38546 -5.78134,2.6817 -7.33912,3.57718 -4.90385,2.21262 1.29879,-0.81078 2.53677,-1.68288 3.8214,-2.50807 0.76023,-0.49223 1.50218,-0.99977 2.2974,-1.45435 0,0 6.91255,-2.18728 6.91255,-2.18728 l 0,0 c -0.85241,0.39501 -1.6006,0.88732 -2.34594,1.40545 -1.29435,0.81938 -2.55612,1.6695 -3.81263,2.52712 -3.44492,2.16725 -7.50477,4.10669 -11.80371,4.93594 -2.61267,0.3646 -5.24825,0.45025 -7.84892,-0.0608 -2.6376,-0.46271 -5.2352,-1.05402 -7.67416,-2.01585 -2.37588,-1.0174 -4.70471,-2.10623 -6.82151,-3.46059 -2.02129,-1.2964 -3.99278,-2.6442 -5.76985,-4.16394 0,0 6.3502,-3.12139 6.3502,-3.12139 z"
       inkscape:connector-curvature="0" />
    <path
       style="fill:#ffff00;stroke-width:3.51099992;stroke-miterlimit:4;stroke-dasharray:none"
       id="path4066"
       d="m 140.40477,895.43698 c 1.84722,1.19369 3.82301,2.20773 5.88718,3.12852 2.27278,1.00565 4.66885,1.78269 7.05882,2.57452 2.34721,0.75178 4.72302,1.4455 7.06631,2.20775 2.3782,0.84489 4.8077,1.54795 7.31769,2.08137 2.23646,0.30612 4.40792,0.82826 6.57995,1.34345 1.76358,0.34672 3.45594,0.8329 5.2498,1.07465 2.26179,0.35436 4.5491,0.6089 6.83905,0.81024 2.64899,0.2036 5.31102,0.24008 7.96981,0.26075 1.70927,-0.01 3.48397,-0.0375 5.096,-0.5417 1.13059,-0.34217 2.26416,-0.68432 3.33564,-1.13873 1.34969,-0.46862 2.72379,-0.88422 4.0903,-1.32111 0.22708,-0.0876 0.45416,-0.17532 0.68124,-0.263 0,0 -5.79979,3.74372 -5.79979,3.74372 l 0,0 c -0.23457,0.0801 -0.46913,0.16027 -0.7037,0.2404 -1.36725,0.43069 -2.73809,0.85731 -4.06575,1.36525 -1.10952,0.40302 -2.23813,0.77163 -3.3985,1.06714 -1.68959,0.34139 -3.4479,0.38751 -5.18238,0.35558 -2.66858,-0.0414 -5.34022,-0.0972 -7.99748,-0.31541 -2.31054,-0.2148 -4.62015,-0.46164 -6.90389,-0.82173 -1.8007,-0.28174 -3.52769,-0.76318 -5.30476,-1.12574 -2.14848,-0.53261 -4.31521,-1.00406 -6.52065,-1.35741 -2.52264,-0.57045 -4.97337,-1.28968 -7.37989,-2.13037 -2.34403,-0.75645 -4.71445,-1.4575 -7.0575,-2.2156 -2.42096,-0.78603 -4.81456,-1.62128 -7.10878,-2.63457 -2.07871,-0.94178 -4.04029,-2.00662 -5.99181,-3.11202 0,0 6.24309,-3.27595 6.24309,-3.27595 z"
       inkscape:connector-curvature="0" />
    <path
       style="fill:#ffff00;stroke-width:3.51099992;stroke-miterlimit:4;stroke-dasharray:none"
       id="path4068"
       d="m 74.017249,801.57003 c 0.20745,-2.25344 0.616471,-4.48718 0.964001,-6.72793 0.33018,-2.26592 0.962172,-4.4901 1.477334,-6.72992 0.289097,-1.5405 0.795202,-3.01835 1.53388,-4.45252 0.565026,-1.08871 1.398189,-2.06108 2.331613,-2.95908 2.311652,-1.95742 5.507938,-3.04341 8.400899,-4.30484 0.188765,-0.0823 0.424361,-0.0756 0.637842,-0.0621 0.225603,0.0143 0.436933,0.096 0.655398,0.14405 1.607139,0.59416 2.479782,1.92805 3.482442,3.04329 1.26716,1.24164 2.42467,2.54084 3.486,3.90378 0.6213,0.86937 1.24117,1.72475 1.62897,2.68353 0.46375,1.02165 0.89732,2.05158 1.33133,3.08246 0.200652,0.46282 0.326032,0.94157 0.443912,1.42155 0,0 -6.555612,2.84461 -6.555612,2.84461 l 0,0 c -0.0959,-0.45617 -0.19924,-0.91128 -0.38239,-1.35105 -0.42433,-1.03695 -0.8592,-2.06877 -1.340708,-3.08849 -0.35166,-0.91537 -0.967926,-1.72152 -1.517129,-2.565 -1.0228,-1.3655 -2.173221,-2.64817 -3.434748,-3.87472 -0.875949,-0.96846 -1.685181,-2.26876 -3.201855,-2.60612 -2.324801,0.13775 -6.923263,2.93626 4.737747,-2.56366 1.01941,-0.4808 -2.602058,1.326 -1.54227,0.95198 -0.96382,0.83396 -1.820189,1.7521 -2.439672,2.78562 -0.759969,1.40301 -1.387504,2.82098 -1.652825,4.35129 -0.512545,2.23826 -1.210469,4.44988 -1.537808,6.71502 -0.345815,2.21779 -0.792439,4.42879 -0.859818,6.66835 0,0 -6.646533,2.68988 -6.646533,2.68988 z"
       inkscape:connector-curvature="0" />
    <path
       style="fill:#ffff00;stroke-width:3.51099992;stroke-miterlimit:4;stroke-dasharray:none"
       id="path4070"
       d="m 80.631848,797.30396 c 0.07288,1.35935 0.403344,2.69223 0.667464,4.0318 0.0309,0.18036 0.06177,0.36073 0.09267,0.5411 0,0 -6.561937,2.80938 -6.561937,2.80938 l 0,0 c -0.02585,-0.17747 -0.05169,-0.35493 -0.07755,-0.53239 -0.236884,-1.3482 -0.561258,-2.68533 -0.703321,-4.04375 0,0 6.582665,-2.80614 6.582665,-2.80614 z"
       inkscape:connector-curvature="0" />
    <path
       style="fill:#ffff00;stroke-width:3.51099992;stroke-miterlimit:4;stroke-dasharray:none"
       id="path4072"
       d="m 88.91969,782.78644 c -0.704684,1.33136 -1.321634,2.69221 -1.996038,4.03412 -0.539822,0.93997 -0.663117,1.95941 -0.840431,2.97066 -0.208754,0.84893 -0.355347,1.70411 -0.432021,2.56732 -0.06659,0.7741 -0.10804,1.54554 0.173478,2.29424 0.357951,0.66148 1.180793,0.97199 1.976953,1.19973 0.956747,0.21401 1.899032,0.30401 2.832673,0.006 2.749794,-1.28044 -3.369027,1.5694 -5.465228,2.52117 -0.149527,0.0679 0.283742,-0.15612 0.42302,-0.23719 0.456033,-0.26543 0.880198,-0.55647 1.303586,-0.855 0.94702,-0.64408 1.753881,-1.39086 2.456991,-2.21289 0.635443,-0.73898 1.084329,-1.5578 1.512705,-2.3846 0.323011,-0.76247 0.741799,-1.50522 0.877042,-2.30942 0.06772,-0.66682 -0.456532,-1.08097 -1.117463,-1.39609 -0.68375,-0.36994 -1.416474,-0.71903 -2.190309,-0.95077 -0.807189,-0.17075 -1.619158,-0.29814 -2.372231,0.041 2.023106,-0.92532 4.041429,-1.8576 6.06932,-2.77594 0.109662,-0.0497 -0.2197,0.10176 -0.313683,0.16946 -0.457376,0.32947 -0.704283,0.79393 -0.909026,1.24799 -0.277039,0.76556 -0.297019,1.56824 -0.317648,2.35996 0.02438,2.45872 0.715424,0.55855 -6.64108,3.04426 -0.109229,0.0369 0.0052,-0.19253 0.0071,-0.28881 0.0022,-0.11023 0.0035,-0.22048 0.0052,-0.33073 0.0091,-0.78562 0.0091,-1.57129 0.0096,-2.35695 0.0113,-0.8736 0.02753,-1.74091 -0.113283,-2.6081 -0.08856,-0.79643 -0.301203,-1.48631 -1.252829,-1.81601 -0.104285,-3.7e-4 -0.211761,-0.0219 -0.312856,-8.2e-4 -0.223016,0.0459 -0.745728,0.43602 -0.544294,0.34552 2.046145,-0.91917 4.036793,-1.91867 6.08218,-2.83897 0.104483,-0.047 -0.176262,0.13321 -0.245056,0.21264 -0.07442,0.0859 -0.120483,0.186 -0.180724,0.27899 -0.316386,0.72022 -0.334587,1.48186 -0.208397,2.23087 0.250822,0.82604 0.6673,1.61298 1.061406,2.39944 0.434329,0.79175 0.611763,1.64814 0.878316,2.4818 0.25998,0.76675 0.372185,1.54955 0.361685,2.34247 0.04759,0.42701 0.482221,0.59585 0.90101,0.79011 0.596227,0.38733 0.967494,0.94404 1.494109,1.38486 0.09913,0.0559 0.188739,0.12506 0.297385,0.16761 0.420166,0.16457 0.866006,-0.34529 0.631166,-0.24093 -5.8693,2.60824 -7.84923,4.1993 -5.851258,2.63043 0.629162,-0.58427 0.808172,-1.33085 0.926048,-2.07748 0.125644,-0.77754 0.04065,-1.55624 -0.225029,-2.3079 -0.223441,-0.65457 -0.635024,-1.24337 -0.889213,-1.88851 -0.328617,-0.57221 -0.521569,-1.18191 -0.802701,-1.76868 -0.334887,-0.70439 -0.634523,-1.40837 -0.813617,-2.15074 -0.218091,-0.71334 -0.367375,-1.44893 -0.810756,-2.09737 0,0 6.458231,-3.02135 6.458231,-3.02135 l 0,0 c 0.475554,0.71124 0.67452,1.49221 0.917794,2.27181 0.147394,0.71127 0.429189,1.37598 0.756951,2.044 0.28862,0.60163 0.48686,1.22385 0.82687,1.80961 0.23232,0.65209 0.66785,1.23397 0.88325,1.89201 0.31893,0.81304 0.45861,1.67383 0.35843,2.52568 -0.0862,0.8262 -0.21892,1.66064 -0.73314,2.39347 -1.716992,2.12516 -5.676469,4.84354 -8.294064,2.96897 -0.463547,-0.41861 -0.834846,-0.91965 -1.404343,-1.25054 -0.606597,-0.34478 -1.124202,-0.69129 -1.268665,-1.31787 -0.0074,-0.41558 -0.02291,-0.20677 0.04881,-0.6263 0.0068,-0.5343 -0.186095,-1.06888 -0.30421,-1.58898 -0.258484,-0.80797 -0.425753,-1.63745 -0.825948,-2.41039 -0.425778,-0.82783 -0.839717,-1.66411 -1.150652,-2.5256 -0.172177,-0.83812 -0.203594,-1.66685 0.0299,-2.50378 0.818139,-2.54107 2.213502,-1.77876 6.911824,-4.00309 0.379987,-0.17991 0.930573,0.0205 1.275716,0.13998 1.01267,0.54421 1.491467,1.31841 1.583237,2.30596 0.163579,0.89146 0.213136,1.77711 0.171775,2.67895 2.54e-4,0.78479 3.96e-4,1.56958 0.0035,2.35437 5.76e-4,0.10983 0.001,0.21966 0.0017,0.32948 6.34e-4,0.0959 0.103043,0.23792 0.0024,0.28765 -7.342587,3.62565 -6.705119,4.98245 -6.643759,2.44926 0.01061,-0.8393 0.02056,-1.68487 0.224667,-2.51101 0.921459,-3.01455 3.836132,-3.36417 7.764719,-4.94237 0.910173,-0.0968 1.828063,0.029 2.680593,0.30475 0.78397,0.30139 1.55568,0.63735 2.25954,1.05096 0.80288,0.48231 1.49243,1.08772 1.50647,1.94643 -0.0138,0.87869 -0.45668,1.66293 -0.78736,2.48595 -0.40599,0.86637 -0.85606,1.71493 -1.45375,2.50689 -0.69746,0.85009 -1.41101,1.68576 -2.38671,2.3465 -2.584953,1.95974 -5.671628,3.65808 -9.038944,4.53166 -1.05699,0.11555 -2.111465,-0.005 -3.10923,-0.31675 -0.970386,-0.36133 -1.872936,-0.81849 -2.316564,-1.64732 -0.341994,-0.81352 -0.385499,-1.64587 -0.299063,-2.4997 0.05958,-0.88292 0.170789,-1.76277 0.408752,-2.62723 0.247556,-1.0373 0.228286,-2.1216 0.791385,-3.10077 0.676707,-1.34033 1.370853,-2.67415 1.964152,-4.04144 0,0 6.749847,-2.51671 6.749847,-2.51671 z"
       inkscape:connector-curvature="0" />
    <path
       style="fill:#ffff00;stroke-width:3.51099992;stroke-miterlimit:4;stroke-dasharray:none"
       id="path4074"
       d="m 328.84476,796.59665 c 1.04343,-1.38576 2.19081,-2.7131 3.40314,-4.00364 2.46257,-2.467 6.03338,-3.52222 9.44631,-5.10357 1.04239,-0.36451 2.09295,-0.58598 3.21801,-0.69068 1.11111,-0.12838 2.15592,-0.0538 3.10965,0.44274 0.78735,0.57005 1.10206,1.35228 0.99666,2.18922 -0.355,1.05551 -1.42404,1.62482 -2.50738,2.16361 -1.33538,0.63344 -2.65778,1.28489 -3.96077,1.96151 -4.14042,2.09031 -14.04606,6.5555 -1.54691,0.77377 1.03312,-0.47788 -0.92096,0.5068 -1.13355,0.64017 -2.37669,1.31767 -5.27541,2.47101 -7.57198,3.50463 -0.49677,0.22359 -1.06228,0.35339 -1.5763,0.5506 -0.18151,0.0592 -0.36371,0.11703 -0.54454,0.17763 -0.40359,0.13527 -1.56441,0.62874 -1.1863,0.45123 10.9131,-5.12349 6.72809,-3.5213 4.97955,-2.13941 -0.65411,0.6797 -0.67134,1.20559 0.0158,1.84896 0.91591,0.74955 2.2498,1.05853 3.47405,1.3378 0.57837,0.0744 1.10367,0.0253 1.60746,-0.22643 0.14828,-0.0741 0.56904,-0.32437 0.41706,-0.25546 -5.87826,2.66486 -7.63982,4.04437 -5.5715,2.47643 0.70872,-0.63208 1.16437,-1.38748 1.43842,-2.20613 0.22975,-0.79879 0.18813,-1.62254 0.27302,-2.4342 0.14166,-0.86037 0.49101,-1.69008 0.8473,-2.5052 0.23696,-0.67701 0.73951,-1.24667 -0.13931,-1.70353 -1.09096,-0.41317 -2.24817,-0.0393 -3.35479,0.15443 0.90197,-0.62679 -3.43742,1.3677 -2.32385,0.84651 6.14606,-2.87663 7.66659,-3.71517 5.34204,-2.45283 -0.14312,0.0919 -0.28626,0.18386 -0.4294,0.27578 0,0 -6.89617,2.24988 -6.89617,2.24988 l 0,0 c 0.14435,-0.0933 0.28871,-0.18655 0.43308,-0.27983 2.68838,-1.98961 6.25145,-3.45752 9.78131,-4.28427 1.29386,-0.204 2.59986,-0.40212 3.7502,0.26753 1.00875,0.75301 0.98582,1.34946 0.56929,2.3636 -0.33777,0.78585 -0.71543,1.56955 -0.91313,2.38751 -0.17529,0.82112 -0.04,1.66779 -0.2412,2.49025 -0.2178,0.90879 -0.62131,1.73198 -1.28296,2.492 -1.96307,2.00853 -0.35264,0.44458 -7.0697,3.65861 -0.71157,0.34047 -1.60603,0.23229 -2.35926,0.0865 -1.34398,-0.35972 -2.74931,-0.7445 -3.72157,-1.62395 -0.81883,-0.82235 -1.08831,-1.60565 -0.48401,-2.59624 2.08376,-2.50586 6.1053,-3.38457 9.40776,-4.61088 0.45974,-0.15577 0.62168,-0.20912 1.07458,-0.3684 0.17209,-0.0606 0.67633,-0.26157 0.51518,-0.18361 -10.41402,5.03829 -7.4433,3.38308 -5.18234,2.48372 0.48016,-0.27032 0.24477,-0.12023 0.70258,-0.45394 2.25536,-1.35097 4.86599,-2.25909 7.23946,-3.46849 1.89665,-0.96643 -3.86417,1.83747 -5.80477,2.74422 -0.19033,0.0889 0.36887,-0.19365 0.55331,-0.29047 1.33441,-0.64425 2.61696,-1.35998 3.96979,-1.98099 1.00971,-0.45176 2.08134,-0.86451 2.69561,-1.69818 0.31281,-0.54638 0.0837,-1.1466 -0.5157,-1.50184 -0.9015,-0.31982 -1.86389,-0.25382 -2.81697,-0.12969 -1.07241,0.16073 -2.0955,0.45433 -3.07638,0.84352 15.93259,-7.5362 5.29107,-2.67588 4.25443,-1.95157 -0.33158,0.23168 -0.82177,0.65912 -1.11904,0.91053 -1.23018,1.25625 -2.42883,2.54401 -3.39108,3.95012 0,0 -6.79423,2.4205 -6.79423,2.4205 z"
       inkscape:connector-curvature="0" />
    <path
       style="fill:#ffff00;stroke-width:3.51099992;stroke-miterlimit:4;stroke-dasharray:none"
       id="path4076"
       d="m 347.1981,790.81708 c -0.1038,1.51772 -0.48349,3.01182 -1.02272,4.46388 -0.45943,1.13507 -1.23685,2.11336 -2.28443,2.93987 -3.03753,1.87373 -6.40073,3.4716 -9.95248,4.6109 -1.10058,0.3995 -2.22571,0.77903 -3.38645,1.0478 -0.65061,0.24541 -1.34094,0.3879 -2.04036,0.50209 0,0 5.91002,-3.67164 5.91002,-3.67164 l 0,0 c 0.67845,-0.15425 1.33848,-0.34784 2.00397,-0.53524 1.12755,-0.32398 2.24058,-0.68131 3.33173,-1.0798 2.44651,-0.87708 5.44172,-2.45667 -4.4553,2.25206 -1.61117,0.76655 3.39598,-1.46272 1.71979,-0.84489 1.08819,-0.73389 1.95799,-1.56255 2.46138,-2.65962 0.60358,-1.37476 1.00478,-2.81769 1.09405,-4.2786 0,0 6.6208,-2.74681 6.6208,-2.74681 z"
       inkscape:connector-curvature="0" />
    <path
       style="fill:#ffff00;stroke-width:3.51099992;stroke-miterlimit:4;stroke-dasharray:none"
       id="path4078"
       d="m 335.31762,795.49059 c -2.05468,-0.23116 -4.11612,0.024 -6.15987,0.20324 -1.61103,0.3181 -3.31389,0.33438 -4.908,0.69625 -0.65987,0.15193 -0.33362,0.0827 -0.97838,0.20856 0,0 5.91068,-3.67638 5.91068,-3.67638 l 0,0 c 0.63606,-0.12958 0.3103,-0.0659 0.97749,-0.19029 1.63288,-0.21853 3.27201,-0.41075 4.90805,-0.61267 2.09624,-0.17865 4.2045,-0.33882 6.30918,-0.13044 0,0 -6.05915,3.50173 -6.05915,3.50173 z"
       inkscape:connector-curvature="0" />
    <path
       style="fill:#ffff00;stroke-width:3.51099992;stroke-miterlimit:4;stroke-dasharray:none"
       id="path4080"
       d="m 379.97815,855.27294 c 2.8693,-0.87963 5.88628,-1.39865 8.88925,-1.8754 4.47833,-0.75306 9.06377,-0.85144 13.61882,-0.9511 6.27311,-0.0845 12.54752,-0.0847 18.82135,-0.0886 5.58098,-0.1718 11.1142,0.3582 16.61638,1.04441 3.72533,0.45927 7.37195,1.22249 10.9422,2.19138 2.54014,0.6146 4.87426,1.61369 7.09438,2.77387 2.06085,1.13838 4.00514,2.40339 5.98122,3.63516 1.91906,1.23508 3.79873,2.51001 5.77237,3.68753 2.1247,1.21437 4.22018,2.46014 6.30579,3.71815 1.73333,1.13514 3.61041,2.08717 5.64152,2.82163 2.26327,0.85158 4.53053,1.69489 6.82609,2.48739 2.82512,0.88471 5.6249,1.83623 8.50723,2.59105 2.99702,0.79075 6.08561,1.3247 9.18367,1.77485 3.32431,0.49198 6.65923,0.93104 9.99373,1.37481 3.49489,0.37173 6.96845,0.86428 10.4619,1.24222 2.54358,0.26413 5.10844,0.31354 7.66898,0.34283 2.87477,0.003 5.75197,0.0672 8.62422,-0.0439 3.01434,-0.24 6.02915,-0.49182 9.01321,-0.91914 1.16087,-0.21272 2.34954,-0.43835 3.43681,-0.84673 0.31827,-0.11954 1.22387,-0.55686 0.91942,-0.41544 -5.91648,2.74794 -7.19703,3.45983 -4.66588,2.09526 1.7223,-0.94068 3.36058,-1.97737 5.02904,-2.97933 1.608,-1.01407 3.25622,-1.98115 4.94876,-2.89892 3.73249,-1.873 7.47842,-3.74994 11.43747,-5.29057 1.64678,-0.74015 3.43345,-1.09085 5.28797,-1.24591 2.58719,-0.11233 5.18004,-0.0882 7.77,-0.0935 2.57302,-0.0337 5.14909,0.0792 7.70359,0.32963 2.03885,0.12 3.97242,0.56837 5.88788,1.11064 1.339,0.43431 2.65548,0.91117 3.96255,1.40591 1.34726,0.47396 2.66053,1.00091 3.84668,1.70956 1.06167,0.79099 2.30315,1.38944 3.47735,2.05876 1.04091,0.54715 2.05516,1.16335 3.19101,1.57972 0.46579,0.17073 1.79625,0.53695 2.2557,0.66696 2.80279,0.6192 5.69412,0.949 8.56609,1.28313 2.7157,0.38896 5.45886,0.6275 8.16763,1.04854 2.28512,0.36977 4.58002,0.69142 6.87265,1.02974 2.13582,0.29874 4.30386,0.35803 6.46556,0.39749 1.65074,0.0202 3.30175,0.011 4.95259,0.005 1.57933,0.0836 3.07614,-0.0415 4.58831,-0.41002 2.30408,-0.6583 4.48359,-1.57406 6.58113,-2.58421 -10.56583,5.217 -2.75947,1.14834 -0.32987,-0.12105 3.4867,-1.73086 6.83415,-3.78244 10.67532,-4.94047 1.90416,-0.42759 3.878,-0.1872 5.80762,-0.0382 2.44347,0.13063 4.85673,0.48065 7.27451,0.77784 1.69059,0.15844 0.85685,0.0665 2.5015,0.27392 0,0 -6.00124,3.43961 -6.00124,3.43961 l 0,0 c -1.63185,-0.19515 -0.79636,-0.10395 -2.50684,-0.27123 -2.40238,-0.29704 -4.80262,-0.63656 -7.23153,-0.75412 -1.89523,-0.11373 -3.84348,-0.28546 -5.6542,0.3032 -2.34003,0.88637 -6.01065,2.71435 4.32811,-2.13175 0.24092,-0.11293 -0.47232,0.23887 -0.71086,0.35509 -1.35817,0.66171 -0.20974,0.0697 -1.61965,0.81509 -4.04513,2.05467 -7.87945,4.37233 -12.22036,6.04095 -2.15722,0.98242 -4.37387,1.92053 -6.75295,2.49422 -1.56038,0.29573 -3.12417,0.34201 -4.72335,0.29857 -1.63999,-8.2e-4 -3.28005,-0.007 -4.9195,-0.0459 -2.18778,-0.0548 -4.38011,-0.13845 -6.53586,-0.47176 -2.28509,-0.35168 -4.57773,-0.66846 -6.85836,-1.03921 -2.69386,-0.40144 -5.41332,-0.67195 -8.11202,-1.05082 -2.91245,-0.35048 -5.85487,-0.66687 -8.68011,-1.35955 -2.00382,-0.58167 -3.89735,-1.30362 -5.60379,-2.35536 -1.18637,-0.66584 -2.4235,-1.27609 -3.5113,-2.0511 -1.16919,-0.66217 -2.43669,-1.17436 -3.7491,-1.62176 -1.29679,-0.47104 -2.58719,-0.95626 -3.91631,-1.36482 -1.86381,-0.53216 -3.7751,-0.89052 -5.74995,-1.02489 -2.5393,-0.21472 -5.09001,-0.32263 -7.64363,-0.28224 -2.58698,-0.004 -5.18366,-0.0267 -7.76058,0.18325 -1.80798,0.23136 -3.52246,0.67107 -5.13303,1.39473 -0.2932,0.11855 -0.58835,0.23396 -0.87962,0.35563 -4.27547,1.78594 7.81983,-3.74514 3.6456,-1.75857 -0.27259,0.12973 -0.54226,0.26349 -0.81372,0.39475 -0.25389,0.12278 -0.50822,0.24492 -0.76233,0.36736 -1.69609,0.91959 -3.39085,1.83981 -4.98355,2.87815 -1.66106,1.00406 -3.29868,2.0342 -4.99834,2.99396 -3.81675,2.1864 -7.76942,4.30316 -12.40168,4.94143 -3.00152,0.38131 -6.02281,0.65581 -9.05117,0.85019 -2.89113,0.0788 -5.78457,0.041 -8.67693,0.0337 -2.57252,-0.0376 -5.14806,-0.11325 -7.698,-0.41554 -3.47411,-0.41187 -6.93374,-0.90371 -10.41357,-1.28603 -3.35437,-0.43845 -6.71737,-0.8334 -10.05429,-1.35539 -3.11233,-0.47805 -6.21538,-1.02719 -9.2216,-1.85048 -2.89836,-0.7841 -5.74307,-1.69984 -8.58484,-2.60986 -2.30381,-0.79813 -4.57899,-1.64762 -6.85809,-2.49115 -2.0461,-0.79169 -3.96133,-1.75867 -5.71502,-2.93172 -2.07706,-1.26505 -4.1692,-2.51262 -6.29985,-3.71765 -1.97049,-1.18793 -3.85927,-2.45943 -5.78286,-3.69656 -1.95438,-1.22778 -3.88902,-2.47716 -5.94989,-3.58686 -2.18891,-1.11153 -4.47121,-2.0784 -6.95833,-2.67367 -3.51547,-0.95248 -7.10519,-1.70417 -10.77016,-2.16815 -5.45692,-0.69775 -10.95214,-1.16299 -16.48691,-1.00986 -6.2792,-0.004 -12.55974,-0.0197 -18.83721,0.12068 -4.57541,0.13675 -9.17275,0.29778 -13.66108,1.09811 -3.0276,0.50827 -6.05864,1.06801 -8.93233,2.01609 0,0 5.83848,-3.71394 5.83848,-3.71394 z"
       inkscape:connector-curvature="0" />
    <path
       style="fill:#ffff00;stroke-width:3.51099992;stroke-miterlimit:4;stroke-dasharray:none"
       id="path4084"
       d="m 379.93536,883.02811 c 2.61137,-0.56183 5.26249,-0.97835 7.90857,-1.41368 2.5351,-0.34296 5.07376,-0.67775 7.61913,-0.96736 2.37227,-0.23301 4.76826,-0.21514 7.15374,-0.22453 1.92772,0.0273 3.86269,-0.0828 5.78733,0.0487 0.40408,0.0276 2.30421,0.23012 2.70889,0.27246 2.63041,0.26081 5.11786,0.98123 7.57175,1.75756 2.25865,0.71586 4.43076,1.59301 6.63268,2.41349 2.05955,0.75695 4.15905,1.47211 6.29156,2.08561 2.16141,0.76863 4.38998,1.39159 6.65041,1.93329 2.65994,0.60417 5.39157,0.93261 8.1202,1.24969 2.64436,0.38592 5.31766,0.60858 7.95951,1.00624 2.72548,0.38827 5.45387,0.76285 8.1788,1.15474 2.76319,0.322 5.49299,0.80363 8.24845,1.16145 1.99173,0.24525 3.912,0.71498 5.82258,1.22047 1.80032,0.54537 3.54214,1.21089 5.30672,1.82961 1.74106,0.61428 3.483,1.19665 5.15275,1.93498 1.59549,0.73874 2.9721,1.73215 4.45738,2.60297 1.53215,0.96738 3.04727,1.95333 4.555,2.94604 1.22984,0.81225 2.57804,1.48824 3.83566,2.26974 1.08832,0.73488 2.33328,1.29455 3.57594,1.83482 1.73385,0.61509 3.52948,1.0141 5.36224,1.37161 2.23609,0.42234 4.53267,0.52511 6.81849,0.59418 2.53487,-4.6e-4 5.05807,0.19915 7.58784,0.30648 2.61076,0.0986 5.22449,0.12381 7.83768,0.12866 1.82456,-0.0724 3.63097,0.1374 5.44396,0.2634 1.27538,0.0885 2.55494,0.11669 3.8343,0.1279 1.12555,-0.0145 2.25552,0.0634 3.37212,-0.0659 1.41097,-0.10893 2.79543,-0.34156 4.19553,-0.51011 1.55347,-0.28813 3.12923,-0.46556 4.69187,-0.71502 1.48166,-0.18835 2.9438,-0.439 4.4342,-0.58595 1.70319,-0.22556 3.39845,-0.49073 5.10438,-0.70339 1.57449,-0.11486 3.07742,-0.51398 4.61292,-0.7889 1.2996,-0.3485 2.67625,-0.42121 3.93353,-0.86567 -0.51617,0.43611 2.29715,-0.99579 1.56494,-0.65753 -10.05796,4.64635 -6.8718,3.57394 -4.93876,2.11772 0.86985,-0.65904 1.47474,-1.4896 2.10846,-2.29627 0.62882,-0.79936 1.19465,-1.62901 1.80468,-2.43773 0.54068,-0.81502 1.16336,-1.5671 1.91834,-2.25897 2.54566,-2.11985 5.8068,-3.97518 9.35832,-4.65907 1.8825,-0.248 3.8005,-0.21876 5.70177,-0.22788 2.38784,-8.2e-4 4.77564,0.009 7.16348,0.006 1.62081,0.0296 3.25009,-0.084 4.86368,0.0616 1.36467,0.0862 2.69322,0.31126 4.03343,0.52158 1.59639,0.22771 3.19222,0.45831 4.79258,0.67284 2.18401,0.26488 4.36571,0.54084 6.55048,0.80371 2.25885,0.31157 4.51459,0.64517 6.78085,0.92033 1.82778,0.28131 3.65235,0.5806 5.48755,0.82925 1.56399,0.18776 3.10218,0.4546 4.67916,0.57065 1.37942,0.26025 2.80017,0.30668 4.18728,0.51723 1.3123,0.21629 2.64765,0.30707 3.98285,0.35906 1.16211,0.0344 2.32522,0.0321 3.48791,0.0308 1.32316,-0.004 2.64634,5.6e-4 3.9695,0.004 1.75387,-7.1e-4 3.49963,0.087 5.22536,-0.20283 0.741,-0.17809 1.44721,-0.45209 2.13039,-0.74358 0.20499,-0.0875 0.80268,-0.3755 0.60182,-0.28191 -5.94021,2.76797 -7.61107,3.6908 -5.21105,2.38667 1.0184,-0.62176 1.95877,-1.32509 2.90532,-2.01723 0.79816,-0.58688 1.69558,-1.07127 2.51633,-1.63461 0.90016,-0.57056 1.76298,-1.17429 2.52749,-1.86437 0.82942,-0.76891 1.57705,-1.58786 2.4698,-2.30965 2.78989,-1.95353 6.39014,-3.25923 9.49624,-4.68538 1.3093,-0.50165 2.68577,-0.86536 4.11037,-1.0724 1.28682,-0.16975 2.59072,-0.20406 3.89157,-0.21783 1.35199,0.0266 2.70743,-0.10992 4.03256,-0.32392 1.41824,-0.19512 2.78548,-0.54327 4.21018,-0.71137 1.57709,-0.10172 3.09376,-0.46998 4.645,-0.69365 1.57226,-0.33289 3.17729,-0.5247 4.79328,-0.6404 1.75566,-0.0438 3.50166,-0.0656 5.25226,-0.19272 1.88191,-0.15707 3.76961,-0.22236 5.66014,-0.24648 1.94648,-0.0453 3.89696,0.0292 5.83961,-0.0835 2.04773,-0.19356 4.0686,-0.58602 5.88157,-1.40099 0.21539,-0.0982 0.43076,-0.19632 0.64614,-0.29449 -1.92189,0.89711 -3.83708,1.80382 -5.76568,2.69132 -0.18601,0.0856 0.36145,-0.18579 0.53684,-0.28513 0.52057,-0.29486 0.99837,-0.63472 1.48453,-0.96513 0.56285,-0.38254 0.28878,-0.19165 0.82274,-0.57215 0,0 6.89426,-2.2621 6.89426,-2.2621 l 0,0 c -0.56413,0.35571 -0.28611,0.16165 -0.82996,0.58605 -0.513,0.31551 -0.97002,0.67304 -1.47217,0.99907 -2.14008,1.38945 -6.54263,3.16794 -7.43965,3.58709 -0.21123,0.0987 -0.43373,0.18049 -0.65059,0.27073 -1.9176,0.67768 -3.95288,1.07262 -6.03979,1.19749 -1.9518,0.0706 -3.90555,0.0261 -5.85851,0.069 -1.88068,0.0459 -3.75876,0.13086 -5.63241,0.2744 -1.75958,0.1095 -3.52222,0.11026 -5.28126,0.22113 -1.59782,0.13965 -3.17301,0.37911 -4.7381,0.67584 -1.54959,0.25947 -3.09239,0.54426 -4.66713,0.69036 -1.40514,0.21969 -2.78394,0.53862 -4.20133,0.70985 -1.3665,0.1665 -2.73921,0.29205 -4.12356,0.26435 -1.26879,0.0268 -2.54143,0.0812 -3.78684,0.29587 -1.38961,0.27565 -2.73396,0.67575 -4.01817,1.19087 11.14754,-5.28853 5.49385,-2.79105 3.1725,-1.35888 -0.97012,0.65086 -1.6971,1.45757 -2.49802,2.23959 -0.73781,0.72494 -1.5347,1.39413 -2.4646,1.96072 -0.85035,0.53346 -1.67518,1.08897 -2.52725,1.62378 -1.00754,0.64885 -1.90879,1.3993 -2.90023,2.06614 -2.62851,1.64945 -0.61418,0.41565 -7.45677,3.61273 -0.88231,0.41223 -1.87019,0.69009 -2.86118,0.85939 -1.76136,0.18277 -3.53301,0.11651 -5.30529,0.12837 -1.33121,0.005 -2.66243,0.0109 -3.99366,0.01 -1.17052,-0.004 -2.34221,-8.2e-4 -3.5109,-0.0613 -1.34737,-0.0796 -2.68889,-0.20903 -4.01683,-0.41451 -1.38601,-0.1566 -2.77257,-0.30511 -4.15294,-0.49292 -1.57928,-0.14636 -3.12735,-0.42534 -4.69959,-0.61155 -1.82154,-0.27234 -3.64064,-0.5536 -5.46098,-0.83111 -2.25578,-0.30058 -4.5059,-0.62781 -6.7624,-0.92531 -2.19267,-0.26668 -4.38603,-0.52796 -6.5777,-0.7998 -1.61728,-0.21752 -3.23609,-0.42379 -4.84833,-0.6651 -1.31313,-0.21881 -2.63265,-0.38546 -3.97008,-0.47332 -1.59476,-0.0662 -3.19389,-0.0146 -4.79013,-0.0461 -2.38504,-0.0113 -4.77023,-0.0176 -7.15526,-0.003 -1.87628,0.0217 -3.79558,-0.007 -5.61893,0.4011 -2.67498,0.8877 -0.89654,0.32501 5.19908,-2.57221 0.16665,-0.0792 -0.33436,0.1577 -0.49225,0.24801 -0.006,0.004 -0.91974,0.59172 -0.9312,0.6001 -0.14998,0.10979 -0.2832,0.23387 -0.4248,0.3508 -0.77263,0.65449 -1.48445,1.32053 -1.98097,2.14168 -0.58082,0.82959 -1.22521,1.62863 -1.79195,2.46565 -0.6753,0.80702 -1.21155,1.69649 -2.05038,2.40612 -2.46958,2.20291 -5.9692,3.46624 -9.33029,4.57552 -1.30753,0.32033 -2.66537,0.48692 -3.97745,0.79831 -1.53041,0.29753 -3.05656,0.61092 -4.62585,0.7474 -1.70901,0.2358 -3.41586,0.48113 -5.12898,0.69687 -1.47579,0.17192 -2.93606,0.41955 -4.40746,0.61418 -1.56777,0.24181 -3.14598,0.43492 -4.70851,0.70016 -1.40703,0.19383 -2.81493,0.3761 -4.23623,0.48817 -1.14275,0.0484 -2.2878,0.0276 -3.43172,0.0168 -1.28018,-0.0261 -2.55934,-0.0787 -3.83407,-0.18133 -1.79056,-0.13754 -3.57908,-0.28919 -5.38128,-0.24004 -2.60791,-0.0309 -5.21618,-0.0651 -7.82153,-0.17065 -2.53868,-0.10972 -5.07416,-0.27222 -7.61775,-0.28281 -2.31561,-0.0966 -4.63879,-0.2363 -6.89812,-0.68784 -1.88853,-0.3659 -3.74168,-0.81433 -5.51023,-1.47715 -1.2724,-0.55738 -2.5215,-1.16473 -3.64108,-1.91268 -1.26767,-0.77556 -2.60207,-1.47659 -3.82878,-2.29709 -1.49222,-0.98945 -2.98325,-1.98227 -4.52266,-2.92249 -1.45848,-0.85896 -2.82766,-1.82564 -4.41278,-2.53136 -1.65913,-0.71497 -3.3928,-1.27881 -5.10811,-1.89631 -1.74882,-0.6081 -3.46812,-1.28276 -5.27078,-1.77918 -1.88409,-0.47827 -3.77611,-0.92542 -5.73233,-1.16721 -2.7409,-0.3888 -5.46566,-0.85446 -8.21983,-1.18225 -2.73772,-0.37831 -5.47466,-0.75916 -8.21152,-1.14111 -2.63339,-0.37658 -5.28951,-0.62829 -7.92348,-1.00246 -2.75527,-0.33459 -5.5165,-0.67263 -8.19651,-1.31001 -2.27498,-0.55013 -4.50428,-1.20697 -6.69411,-1.95303 -2.13382,-0.64738 -4.25324,-1.34459 -6.31452,-2.13165 -2.18824,-0.81715 -4.35066,-1.68467 -6.60164,-2.38516 -2.41722,-0.7469 -4.87117,-1.423 -7.45951,-1.64481 -2.8019,-0.27608 -5.60361,-0.33917 -8.42572,-0.26404 -2.38514,0.0294 -4.77942,0.0459 -7.14606,0.31744 -2.51613,0.29699 -5.03762,0.57446 -7.53603,0.95975 -2.67363,0.43998 -5.35187,0.87935 -7.96682,1.51938 0,0 5.87257,-3.69169 5.87257,-3.69169 z"
       inkscape:connector-curvature="0" />
    <path
       style="fill:#ffff00;stroke-width:3.51099992;stroke-miterlimit:4;stroke-dasharray:none"
       id="path4086"
       d="m 682.51733,875.76076 c 1.97002,-0.30995 3.96343,-0.47078 5.96344,-0.57426 2.11953,-0.0744 4.24172,-0.0769 6.36287,-0.0808 1.86698,-0.032 3.72016,-0.0128 5.57741,0.13906 1.7929,0.0681 3.50302,0.43265 5.18266,0.91837 1.29041,0.43616 2.5835,0.86848 3.77074,1.4743 1.00064,0.57371 2.13536,0.96659 3.11619,1.56129 0.8884,0.49169 1.82091,0.93347 2.82499,1.24823 0.87071,0.40067 1.83283,0.62281 2.77891,0.87002 1.02833,0.24175 2.10578,0.26242 3.16807,0.28937 0.59772,0.0927 1.19968,0.16383 1.80204,0.23272 0,0 -6.0636,3.48117 -6.0636,3.48117 l 0,0 c -0.58677,-0.0694 -1.17277,-0.15071 -1.7652,-0.18107 -1.11284,-0.0505 -2.23459,-0.11647 -3.29446,-0.42127 -0.95388,-0.26468 -1.90915,-0.51915 -2.7983,-0.91382 -1.02634,-0.37223 -2.01288,-0.82015 -2.9209,-1.36092 -0.99243,-0.55177 -2.08729,-0.97255 -3.08117,-1.52494 -1.1676,-0.55483 -2.40977,-0.98152 -3.66838,-1.37973 -1.63698,-0.4632 -3.3277,-0.72833 -5.06147,-0.80619 -1.83937,-0.12373 -3.68079,-0.1057 -5.52557,-0.10014 -2.11234,0.005 -4.22655,0.005 -6.33564,0.11341 -1.99759,0.11908 -3.99252,0.30418 -5.94584,0.67672 0,0 5.91321,-3.66163 5.91321,-3.66163 z"
       inkscape:connector-curvature="0" />
    <path
       style="fill:#ffff00;stroke:#000000;stroke-width:4.9147644;stroke-miterlimit:4;stroke-dasharray:none;stroke-opacity:1"
       d="m 520.3106,953.77966 c -11.1473,-0.67032 -15.17805,-1.71027 -19.10759,-4.92994 -1.09545,-0.89754 -5.14721,-5.47145 -9.00392,-10.16422 -5.22103,-6.35287 -8.25454,-9.40604 -11.87573,-11.95259 -6.33128,-4.45233 -9.52341,-5.70175 -24.80058,-9.70684 -6.99225,-1.8331 -14.39579,-3.89683 -16.45235,-4.58609 -3.57001,-1.19642 -11.08316,-5.6929 -19.69296,-11.78572 -6.68734,-4.73236 -9.09091,-5.47686 -17.4725,-5.41191 -9.36172,0.0726 -21.98009,3.16408 -24.0323,5.88799 -0.49488,0.65683 -0.62319,-2.39966 -0.62319,-14.8436 0,-9.46873 -0.30228,-19.37401 -0.76376,-25.02778 -0.42005,-5.14637 -0.69717,-9.46387 -0.61583,-9.59451 0.0813,-0.13073 2.38808,-1.02744 5.1261,-1.9929 4.46203,-1.57334 6.83921,-1.79449 22.92623,-2.13289 19.75977,-0.41567 25.50258,0.30184 34.03373,4.25241 6.18151,2.8625 8.72774,4.91758 13.82767,11.1604 17.55029,21.4834 19.86636,23.76048 30.91047,30.38969 6.79147,4.07658 10.63951,5.53669 23.43215,8.89118 13.64844,3.57892 23.49776,4.31883 32.40614,2.43453 6.98244,-1.47691 10.30415,-3.76493 17.20018,-11.84752 7.0439,-8.25593 8.94286,-10.18556 10.86951,-11.04494 2.70161,-1.20504 15.7152,-1.00368 19.54243,0.3024 4.30253,1.46831 8.43786,4.48408 12.83056,9.35705 1.98403,2.20093 4.56515,4.68216 5.73586,5.51387 1.17135,0.83214 8.40517,3.1853 16.08569,5.23262 12.15097,3.23896 14.70518,3.68572 19.73775,3.45234 5.75174,-0.26677 5.80411,-0.28692 10.46968,-4.02761 2.57897,-2.06773 6.48383,-5.61335 8.67749,-7.87921 l 3.98845,-4.11974 5.42815,0.42286 c 2.9855,0.23257 5.66647,0.80562 5.95774,1.2734 0.37377,0.60026 0.35356,0.85056 -0.0686,0.85056 -0.32907,0 -0.59828,0.30318 -0.59828,0.67378 0,0.37057 1.06567,0.39202 2.36814,0.0477 1.30249,-0.34433 5.52441,-0.64751 9.38208,-0.67376 8.09325,-0.055 10.70623,0.86459 15.67037,5.51539 5.07609,4.75564 6.55062,5.86248 9.2233,6.92326 l 2.49277,0.98938 -1.99424,0.0835 c -9.27535,0.38783 -19.96716,1.89152 -25.23246,3.5487 -3.39711,1.06921 -8.16353,2.19684 -10.59203,2.50585 -3.94001,0.50134 -4.94544,0.98793 -9.33725,4.51904 -4.02467,3.23586 -5.90065,5.42561 -10.29195,12.0131 l -5.37015,8.05592 -9.47257,-0.41823 c -6.60537,-0.29161 -11.13251,-0.9277 -14.95668,-2.10147 -5.09238,-1.563 -13.85111,-3.91208 -25.92491,-6.95296 -3.58201,-0.90214 -7.10966,-1.1495 -12.53056,-0.87857 -6.73098,0.33635 -7.84303,0.59619 -10.30772,2.40837 -3.67345,2.70102 -6.7986,7.46633 -9.25964,14.11944 -1.67149,4.51868 -2.30191,5.55593 -3.65674,6.01664 -16.33265,5.5541 -23.95422,6.45442 -44.28809,5.23171 z"
       id="path4088"
       inkscape:connector-curvature="0" />
    <path
       style="fill:#2b0000;stroke-width:3.51099992;stroke-miterlimit:4;stroke-dasharray:none"
       id="path4094"
       d="m 144.27951,907.59754 c 1.16317,2.02775 2.77385,3.84134 4.67528,5.44616 1.7709,1.34239 3.61074,2.62959 5.74247,3.58172 1.67352,0.74744 2.21606,0.8661 4.0287,1.44996 5.59337,1.81786 11.55682,2.68917 17.45037,3.59115 3.59047,0.49128 7.19917,0.91755 10.84593,0.97861 3.56075,0.0597 7.12444,-0.18234 10.66909,-0.41448 6.67864,-0.57088 13.08882,-2.19452 19.46339,-3.82832 1.11218,-0.31085 2.23327,-0.6013 3.33653,-0.93254 2.20308,-0.66141 4.41042,-1.41366 6.52515,-2.24523 0.97806,-0.38458 3.75609,-1.75776 2.89274,-1.22116 -1.0518,0.65374 -2.20167,1.25693 -3.46518,1.57695 -0.93528,0.23689 1.63386,-0.88002 2.45079,-1.32003 3.85439,-2.09606 7.02367,-4.85955 9.60803,-7.97157 0,0 6.68315,-2.37932 6.68315,-2.37932 l 0,0 c -2.60089,3.1865 -5.79172,6.05653 -9.67327,8.24105 -7.4214,4.10075 -15.32531,7.60499 -23.91862,9.75685 -6.40111,1.63422 -12.84952,3.22845 -19.56521,3.72728 -3.5581,0.21054 -7.12599,0.42331 -10.69742,0.33465 -2.74508,-0.0681 -4.65208,-0.25577 -7.36384,-0.56607 -1.1903,-0.13621 -2.37525,-0.30179 -3.56287,-0.45267 -5.96513,-0.89509 -11.98389,-1.79821 -17.64968,-3.61689 -1.80866,-0.58993 -2.47485,-0.74978 -4.14733,-1.50967 -2.17243,-0.98707 -4.0497,-2.32469 -5.86613,-3.69315 -1.96102,-1.66063 -3.59926,-3.52948 -4.93009,-5.56621 0,0 6.46802,-2.96707 6.46802,-2.96707 z"
       inkscape:connector-curvature="0" />
  </g>
</svg>
