<?xml version="1.0" encoding="UTF-8" standalone="no"?>
<!-- Generator: Adobe Illustrator 9.0, SVG Export Plug-In  -->
<svg
   xmlns:dc="http://purl.org/dc/elements/1.1/"
   xmlns:cc="http://creativecommons.org/ns#"
   xmlns:rdf="http://www.w3.org/1999/02/22-rdf-syntax-ns#"
   xmlns:svg="http://www.w3.org/2000/svg"
   xmlns="http://www.w3.org/2000/svg"
   xmlns:sodipodi="http://sodipodi.sourceforge.net/DTD/sodipodi-0.dtd"
   xmlns:inkscape="http://www.inkscape.org/namespaces/inkscape"
   width="144pt"
   height="144pt"
   viewBox="0 0 144 144"
   xml:space="preserve"
   id="svg2"
   sodipodi:version="0.32"
   inkscape:version="0.46"
   sodipodi:docname="dvd_unmount.svg"
   inkscape:output_extension="org.inkscape.output.svg.inkscape"><metadata
   id="metadata149"><rdf:RDF><cc:Work
       rdf:about=""><dc:format>image/svg+xml</dc:format><dc:type
         rdf:resource="http://purl.org/dc/dcmitype/StillImage" /></cc:Work></rdf:RDF></metadata><defs
   id="defs147"><inkscape:perspective
     sodipodi:type="inkscape:persp3d"
     inkscape:vp_x="0 : 90 : 1"
     inkscape:vp_y="0 : 1000 : 0"
     inkscape:vp_z="180 : 90 : 1"
     inkscape:persp3d-origin="90 : 60 : 1"
     id="perspective151" /></defs><sodipodi:namedview
   inkscape:window-height="682"
   inkscape:window-width="640"
   inkscape:pageshadow="2"
   inkscape:pageopacity="0.0"
   guidetolerance="10.0"
   gridtolerance="10.0"
   objecttolerance="10.0"
   borderopacity="1.0"
   bordercolor="#666666"
   pagecolor="#ffffff"
   id="base"
   showgrid="false"
   inkscape:zoom="2.5666667"
   inkscape:cx="90"
   inkscape:cy="90"
   inkscape:window-x="166"
   inkscape:window-y="108"
   inkscape:current-layer="svg2" />
	<g
   id="Layer_x0020_1"
   style="fill-rule:nonzero;clip-rule:nonzero;fill:#FFFFFF;stroke:#FFFFFF;stroke-width:0;stroke-miterlimit:4;">
		<path
   style="fill:none;stroke:none;"
   d="M144,144H0V0h144v144z"
   id="path5" />
		<path
   style="opacity:0.2;fill:#000000;stroke:none;"
   d="M103.995,122.896c0,8.636-23.175,15.634-51.762,15.634c-28.588,0-51.764-6.999-51.764-15.634c0-8.633,23.175-15.633,51.764-15.633c28.587,0,51.762,7,51.762,15.633z"
   id="path7" />
		<linearGradient
   id="aigrd1"
   gradientUnits="userSpaceOnUse"
   x1="15.1929"
   y1="77.313"
   x2="120.855"
   y2="77.313">
			<stop
   offset="0"
   style="stop-color:#FFFFFF"
   id="stop10" />
			<stop
   offset="1"
   style="stop-color:#000000"
   id="stop12" />
		</linearGradient>
		<path
   style="opacity:0.2;fill:url(#aigrd1);stroke:none;"
   d="M35.905,25.71c-23.226,14.456-27.676,49.278-9.936,77.78c17.738,28.5,50.945,39.883,74.173,25.426c23.228-14.458,27.677-49.276,9.938-77.778S59.134,11.252,35.905,25.71z M72.289,84.165c-3.084,1.919-7.494,0.405-9.848-3.376    c-2.353-3.783-1.761-8.403,1.32-10.322c3.084-1.92,7.49-0.41,9.845,3.374c2.354,3.783,1.766,8.406-1.317,10.325z"
   id="path14" />
		<linearGradient
   id="aigrd2"
   gradientUnits="userSpaceOnUse"
   x1="30.1309"
   y1="114.2744"
   x2="101.3835"
   y2="39.161">
			<stop
   offset="0.0112"
   style="stop-color:#98AFF2"
   id="stop17" />
			<stop
   offset="0.0958"
   style="stop-color:#9DB3F3"
   id="stop19" />
			<stop
   offset="0.1985"
   style="stop-color:#ACBFF5"
   id="stop21" />
			<stop
   offset="0.3104"
   style="stop-color:#C4D2F8"
   id="stop23" />
			<stop
   offset="0.4282"
   style="stop-color:#E6ECFC"
   id="stop25" />
			<stop
   offset="0.5"
   style="stop-color:#FFFFFF"
   id="stop27" />
			<stop
   offset="0.5187"
   style="stop-color:#F7F9FE"
   id="stop29" />
			<stop
   offset="0.6105"
   style="stop-color:#D5DEFA"
   id="stop31" />
			<stop
   offset="0.7041"
   style="stop-color:#BACAF6"
   id="stop33" />
			<stop
   offset="0.7992"
   style="stop-color:#A7BBF4"
   id="stop35" />
			<stop
   offset="0.8967"
   style="stop-color:#9CB2F2"
   id="stop37" />
			<stop
   offset="1"
   style="stop-color:#98AFF2"
   id="stop39" />
		</linearGradient>
		<path
   style="fill:url(#aigrd2);stroke:none;"
   d="M33.609,25.148c-23.228,14.458-27.678,49.28-9.939,77.78c17.737,28.497,50.947,39.884,74.175,25.426c23.227-14.456,27.677-49.281,9.939-77.778C90.045,22.075,56.835,10.69,33.609,25.148z M69.989,83.6c-3.083,1.918-7.492,0.408-9.847-3.374    c-2.354-3.783-1.762-8.408,1.32-10.325c3.083-1.92,7.491-0.408,9.846,3.377c2.354,3.781,1.763,8.403-1.32,10.322z"
   id="path41" />
		<linearGradient
   id="aigrd3"
   gradientUnits="userSpaceOnUse"
   x1="1065.4302"
   y1="95.0107"
   x2="1158.0178"
   y2="2.4231"
   gradientTransform="matrix(0.849 -0.5284 0.5284 0.849 -910.0727 618.7241)">
			<stop
   offset="0.0112"
   style="stop-color:#B1CAFF"
   id="stop44" />
			<stop
   offset="0.1108"
   style="stop-color:#B6CDFF"
   id="stop46" />
			<stop
   offset="0.2315"
   style="stop-color:#C5D8FF"
   id="stop48" />
			<stop
   offset="0.3631"
   style="stop-color:#DDE8FF"
   id="stop50" />
			<stop
   offset="0.5"
   style="stop-color:#FFFFFF"
   id="stop52" />
			<stop
   offset="0.5262"
   style="stop-color:#F8FAFF"
   id="stop54" />
			<stop
   offset="0.6396"
   style="stop-color:#DDE6FF"
   id="stop56" />
			<stop
   offset="0.7554"
   style="stop-color:#CAD8FF"
   id="stop58" />
			<stop
   offset="0.8741"
   style="stop-color:#BFD0FF"
   id="stop60" />
			<stop
   offset="1"
   style="stop-color:#BBCDFF"
   id="stop62" />
		</linearGradient>
		<path
   style="fill:url(#aigrd3);stroke:none;"
   d="M60.142,80.226c-0.219-0.352-0.398-0.709-0.572-1.072l-30.372,31.511c10.303,12.641,23.903,20.736,37.559,23.17l-1.525-49.653c-1.94-0.536-3.815-1.908-5.09-3.956z"
   id="path64" />
		<linearGradient
   id="aigrd4"
   gradientUnits="userSpaceOnUse"
   x1="1073.1577"
   y1="102.7715"
   x2="1164.618"
   y2="11.3112"
   gradientTransform="matrix(0.849 -0.5284 0.5284 0.849 -910.0727 618.7241)">
			<stop
   offset="0.0112"
   style="stop-color:#B1CAFF"
   id="stop67" />
			<stop
   offset="0.1108"
   style="stop-color:#B6CDFF"
   id="stop69" />
			<stop
   offset="0.2315"
   style="stop-color:#C5D8FF"
   id="stop71" />
			<stop
   offset="0.3631"
   style="stop-color:#DDE8FF"
   id="stop73" />
			<stop
   offset="0.5"
   style="stop-color:#FFFFFF"
   id="stop75" />
			<stop
   offset="0.5262"
   style="stop-color:#F8FAFF"
   id="stop77" />
			<stop
   offset="0.6396"
   style="stop-color:#DDE6FF"
   id="stop79" />
			<stop
   offset="0.7554"
   style="stop-color:#CAD8FF"
   id="stop81" />
			<stop
   offset="0.8741"
   style="stop-color:#BFD0FF"
   id="stop83" />
			<stop
   offset="1"
   style="stop-color:#BBCDFF"
   id="stop85" />
		</linearGradient>
		<path
   style="fill:url(#aigrd4);stroke:none;"
   d="M68.212,70.19l30.373-31.514C88.441,28.007,75.82,21.309,63.245,19.431l1.526,49.652c1.161,0.063,2.342,0.445,3.441,1.107z"
   id="path87" />
		<g
   style="stroke:none;"
   id="g89">
			<path
   style="opacity:0.8;"
   d="M60.142,80.226c-0.219-0.352-0.398-0.709-0.572-1.072l-30.372,31.511c10.303,12.641,23.903,20.736,37.559,23.17l-1.525-49.653c-1.94-0.536-3.815-1.908-5.09-3.956z"
   id="path91" />
			<path
   style="opacity:0.8;"
   d="M68.212,70.19l30.373-31.514C88.441,28.007,75.82,21.309,63.245,19.431l1.526,49.652c1.161,0.063,2.342,0.445,3.441,1.107z"
   id="path93" />
		</g>
		<g
   style="opacity:0.4;stroke:none;"
   id="g95">
			<path
   style="opacity:0.8;"
   d="M61.361,81.637c-0.281-0.3-0.538-0.609-0.775-0.93l-20.802,40.32c12.423,9.997,26.838,14.469,40.005,13.19l-12.82-49.967c-1.914-0.011-3.964-0.887-5.608-2.614z"
   id="path97" />
			<path
   style="opacity:0.8;"
   d="M66.504,69.235l20.8-40.325c-11.819-8.038-25.014-11.367-37.055-9.814L63.07,69.056c1.087-0.254,2.27-0.188,3.434,0.18z"
   id="path99" />
		</g>
		<g
   style="opacity:0.68;stroke:none;"
   id="g101">
			<path
   style="opacity:0.9;"
   d="M67.781,83.536c-0.334,0.072-0.675,0.1-1.016,0.111l24.713,46.987c12.397-5.098,21.108-15.822,24.788-29.236L71.87,79.953c-0.692,1.82-2.125,3.177-4.088,3.583z"
   id="path103" />
			<path
   style="opacity:0.9;"
   d="M59.734,70.282L35.018,23.289c-10.626,5.847-17.984,16.178-21.045,28.698l44.397,21.445c0.182-1.209,0.657-2.291,1.365-3.15z"
   id="path105" />
		</g>
		<linearGradient
   id="aigrd5"
   gradientUnits="userSpaceOnUse"
   x1="75.3599"
   y1="92.3271"
   x2="167.6262"
   y2="241.5082">
			<stop
   offset="0"
   style="stop-color:#FFFFFF"
   id="stop108" />
			<stop
   offset="1"
   style="stop-color:#9195F2"
   id="stop110" />
		</linearGradient>
		<path
   style="fill:url(#aigrd5);stroke:none;"
   d="M24.177,102.612c17.497,28.113,50.368,39.383,73.28,25.122c22.91-14.259,27.316-48.731,9.819-76.844C89.779,22.779,56.904,11.509,33.994,25.768C11.082,40.029,6.68,74.5,24.177,102.612z M104.729,52.476    c16.623,26.707,12.649,59.326-8.857,72.711c-8.838,5.501-19.872,7.095-31.069,4.489c-15.048-3.502-28.927-13.944-38.079-28.649c-16.623-26.707-12.65-59.326,8.856-72.711c21.506-13.385,52.526-2.547,69.149,24.161z"
   id="path112" />
		<linearGradient
   id="aigrd6"
   gradientUnits="userSpaceOnUse"
   x1="14.187"
   y1="76.6934"
   x2="117.2574"
   y2="76.6934">
			<stop
   offset="0"
   style="stop-color:#9AB1FF"
   id="stop115" />
			<stop
   offset="1"
   style="stop-color:#444973"
   id="stop117" />
		</linearGradient>
		<path
   style="fill:url(#aigrd6);stroke:none;"
   d="M68.213,17.691c16.652,3.875,31.943,15.32,41.952,31.401c18.448,29.642,13.523,66.165-10.979,81.416c-24.503,15.251-59.448,3.543-77.898-26.098c-7.343-11.796-11.192-25.042-11.192-37.835c0-4.646,0.508-9.231,1.54-13.667    c2.996-12.874,10.323-23.498,20.632-29.914c10.307-6.416,23.072-8.299,35.945-5.303z M97.073,127.112c22.625-14.083,26.978-48.139,9.697-75.906c-17.284-27.769-49.76-38.9-72.387-24.815c-22.631,14.086-26.983,48.138-9.698,75.906    c17.282,27.766,49.757,38.901,72.388,24.815z"
   id="path119" />
		<linearGradient
   id="aigrd7"
   gradientUnits="userSpaceOnUse"
   x1="57.5059"
   y1="76.7505"
   x2="73.9482"
   y2="76.7505">
			<stop
   offset="0"
   style="stop-color:#9AB1FF"
   id="stop122" />
			<stop
   offset="1"
   style="stop-color:#444973"
   id="stop124" />
		</linearGradient>
		<path
   style="fill:url(#aigrd7);stroke:none;"
   d="M59.133,80.857c2.776,4.459,7.994,6.249,11.631,3.986c3.636-2.263,4.336-7.736,1.561-12.197c-2.779-4.462-7.998-6.253-11.635-3.989c-3.636,2.264-4.334,7.736-1.556,12.2z M68.928,74.759c1.557,2.502,1.427,5.627-0.277,6.688    c-1.705,1.061-4.565-0.203-6.122-2.703c-0.73-1.174-1.09-2.486-1.09-3.658c0-1.325,0.46-2.47,1.365-3.034c1.704-1.061,4.566,0.205,6.125,2.707z"
   id="path126" />
		<linearGradient
   id="aigrd8"
   gradientUnits="userSpaceOnUse"
   x1="49.9258"
   y1="76.751"
   x2="81.5269"
   y2="76.751">
			<stop
   offset="0"
   style="stop-color:#9AB1FF"
   id="stop129" />
			<stop
   offset="1"
   style="stop-color:#626AA4"
   id="stop131" />
		</linearGradient>
		<path
   style="opacity:0.5;fill:url(#aigrd8);stroke:none;"
   d="M53.051,84.642c5.338,8.575,15.368,12.014,22.356,7.663c6.991-4.35,8.331-14.866,2.994-23.44c-5.337-8.577-15.365-12.018-22.354-7.667c-6.99,4.352-8.333,14.871-2.996,23.445z M56.946,82.218c-3.699-5.942-2.769-13.229,2.073-16.244    c4.843-3.013,11.79-0.63,15.488,5.313c3.698,5.94,2.767,13.225-2.074,16.239c-4.843,3.014-11.792,0.631-15.487-5.308z"
   id="path133" />
		<g
   id="g135">
			<linearGradient
   id="aigrd9"
   gradientUnits="userSpaceOnUse"
   x1="37.6465"
   y1="69.4976"
   x2="114.547"
   y2="126.4194">
				<stop
   offset="0"
   style="stop-color:#9AB1FF"
   id="stop138" />
				<stop
   offset="1"
   style="stop-color:#444973"
   id="stop140" />
			</linearGradient>
			<path
   style="fill:url(#aigrd9);stroke:none;"
   d="M102.445,90.494c-1.2,0.375-1.834,1.225-2.141,1.633c0,0-0.044,0.059-0.044,0.061l-0.464,0.561l-0.244,0.285l-3.732,4.438l-1.025,1.211c-0.875,1.031-1.779,2.095-2.65,3.19c0,0-0.197,0.256-0.367,0.481c-0.239-0.75-0.478-1.503-0.742-2.255     l-0.597-1.651c-0.428-1.169-0.832-2.272-1.169-3.388l-0.137-0.461c-0.174-0.595-0.371-1.272-0.669-1.962l0.011,0.026l-0.012-0.033c-0.708-1.828-2.064-2.234-2.813-2.313l-0.867-0.016l-0.099,0.005c-0.006,0-35.153,0-35.153,0s0,1.467,0,2.934     c-1.425-0.35-2.849-0.7-2.849-0.7l-1.046,4.244l-0.048,0.167c-0.113,0.374-0.284,0.939-0.284,1.617c0,0,0.104,0.239,0.139,0.317c-0.309,0.409-0.525,0.901-0.604,1.459l0.035-0.183l-0.299,1.242l-2.031,8.492l-0.681,2.863l-0.206,0.876l-0.437,1.806l-0.071,0.236     c-0.133,0.43-0.334,1.078-0.334,1.838v2.934h10.142l4.937,0.013l0.768,0.001c2.14,0.009,4.032-0.124,5.784-0.405c3.839-0.614,7.32-1.839,10.349-3.637c2.928-1.741,5.148-3.724,6.638-5.916c0.039,0.106,2.214,6.256,2.214,6.256l0.556,1.594     c0.439,1.264,0.891,2.572,1.392,3.861l0.028,0.07l0.364,1.005l0.094,0.361c0.331,1.548,1.646,2.544,3.208,2.422l-0.164,0.006l1.95-0.478c0,0,0.251-0.452,0.483-0.869l0.188-0.219c0.787-0.957,1.628-1.874,2.517-2.844c0,0,1.117-1.227,1.119-1.227l4.013-4.527     l2.119-2.4l2.411-2.727c0,0,0.4-0.45,0.972-1.095c-0.212,0.894-0.413,1.742-0.413,1.742l-0.667,2.814l-0.172,0.667c-0.185,0.686-0.393,1.461-0.472,2.333l-0.284,3.197h11.883l1.459,0.005c3.328,0.017,6.769,0.034,10.242-0.716c1.922-0.416,3.8-1.016,5.581-1.78     c1.975-0.85,3.692-1.94,5.111-2.896c3.116-2.094,5.45-5.17,6.408-8.438c0.581-1.981,0.621-4.01,0.118-5.864c-0.513-1.881-1.622-3.692-3.211-5.237c-2.492-2.422-5.965-4.033-10.33-4.791c-0.906-0.156-1.869-0.278-2.862-0.357c-0.854-0.07-1.663-0.066-2.445-0.063     l-0.63,0.001l-5.791-0.008h-5.784l-1.688,0.012c-1.251,0.013-2.435,0.025-3.605-0.025l-0.276-0.016c-0.683-0.042-1.617-0.097-2.619,0.216h-0.001z M58.951,95.702 M51.742,103.557c0,0,0.994,0,1.763,0c-0.241,1.019-1.884,7.956-1.884,7.956     s-0.535,2.31-0.711,3.069c-0.051,0-1.793,0-3.448,0c0.053-0.229,0.108-0.461,0.108-0.461l0.682-2.864c0,0,1.341-5.607,1.842-7.7c0.798,0,1.648,0,1.648,0h0z M58.703,107.082c0,0,1.177-4.974,1.301-5.494c0.668,0.014,1.326,0.039,1.963,0.108     c0.627,0.068,3.766,0.49,3.942,2.134c0.009,0.095,0.014,0.19,0.014,0.286c0,1.552-1.327,3.005-2.631,3.734c-0.43,0.241-0.936,0.433-1.566,0.646c-0.874,0.297-1.577,0.484-2.212,0.589c-0.424,0.07-0.866,0.109-1.317,0.138c0.236-0.999,0.507-2.141,0.507-2.141z      M73.004,96.175c0,0,1.457,0,2.052,0c0,0.772,0,2.315,0,2.315c0,0.958,0.236,1.717,0.431,2.349c0.13,0.416,0.214,0.869,0.266,1.428c0.03,0.309,0.044,0.614,0.044,0.908c0,1.014-0.17,1.931-0.51,2.737c-0.809,1.92-2.709,3.808-5.494,5.463     c-1.317,0.784-2.768,1.417-4.316,1.923c0.228-0.108,0.452-0.199,0.681-0.327c3.498-1.959,5.634-5.362,5.634-8.859c0-0.302-0.016-0.604-0.047-0.906c-0.378-3.523-3.042-6.065-7.251-7.031c3.934,0,8.51,0,8.51,0z M93.818,109.333l0.814-1.056l0.542-0.689     l0.681-0.905l0.881-1.158c0.813-1.019,1.686-2.048,2.531-3.044l1.045-1.234l3.728-4.434l0.211-0.244c0,0,0.181-0.223,0.359-0.439c0.033,0.001,0.472,0.027,0.472,0.027c0.75,0.033,1.497,0.042,2.234,0.042c-0.72,0.406-1.176,0.974-1.411,1.271     c0,0-0.064,0.081-0.069,0.086c-0.017,0.02-2.956,3.306-2.956,3.306l-5.363,6.043l-2.405,2.721l-2.129,2.414l-3.972,4.478c0,0-0.641,0.703-0.895,0.984c-0.124-0.355-0.249-0.702-0.374-1.067l-0.569-1.631l-3.916-11.064l-0.853-2.386c0,0-0.917-2.56-0.947-2.639     c-0.006-0.022-0.018-0.065-0.018-0.065c-0.362-1.275-0.942-2.025-1.553-2.474c1.737,0,2.922,0,3.589,0c0.006,0.023,0.173,0.589,0.173,0.589c0.386,1.273,0.837,2.506,1.275,3.7l0.572,1.584c0.597,1.692,1.122,3.465,1.631,5.18c0.175,0.594,0.344,1.227,0.391,1.836     c0.122,1.647,1.484,2.939,3.102,2.939l1.984-0.217l0.828-1.84c0.083-0.166,0.205-0.359,0.385-0.613h-0.002z M108.188,112.795l1.352-5.683l0.526-2.297l0.219-0.977c0,0,0.031-0.126,0.073-0.298c0.508,0.008,1.175,0.016,1.175,0.016s1.202,0,2.275,0     c-0.125,0.53-0.251,1.065-0.251,1.065l-0.227,0.97l-0.306,1.286c-0.367,1.534-0.747,3.122-1.077,4.716c0,0-0.453,2.225-0.608,2.987c-0.981,0-1.828,0-3.573,0c0.195-0.828,0.422-1.786,0.422-1.786z M118.731,108.243l0.31-1.3l0.231-0.986l0.453-1.908l0.155-0.617     c0.15-0.574,0.3-1.224,0.42-1.902c1.281,0.047,2.508,0.182,3.656,0.506c0.979,0.277,1.638,0.622,1.956,1.027c0.211,0.267,0.325,0.639,0.325,1.056c0,0.031-0.001,0.063-0.003,0.095c-0.055,1.362-1.018,2.702-2.577,3.583c-0.513,0.291-1.1,0.545-1.747,0.756     c-0.847,0.278-1.583,0.463-2.186,0.547c-0.396,0.057-0.808,0.083-1.222,0.108c0.077-0.322,0.151-0.648,0.228-0.965z M126.548,112.905c3.337-1.887,5.412-5.047,5.551-8.453c0.003-0.109,0.006-0.22,0.006-0.331c0-1.734-0.556-3.389-1.584-4.692     c-1.117-1.417-2.742-2.411-4.967-3.041c-0.229-0.064-0.453-0.103-0.68-0.156c0.792,0.067,1.555,0.161,2.269,0.286c3.175,0.55,5.611,1.633,7.239,3.214c0.838,0.813,1.403,1.702,1.639,2.569c0.097,0.356,0.146,0.737,0.146,1.131c0,0.499-0.078,1.017-0.233,1.542     c-0.578,1.975-2.055,3.878-4.05,5.22c-1.195,0.803-2.624,1.714-4.153,2.372c-0.651,0.28-1.322,0.522-2,0.745c0.273-0.133,0.558-0.259,0.817-0.406z"
   id="path142" />
			<path
   style="stroke:none;"
   d="M48.944,92.947c7.824,0,15.649,0,23.473,0c3.896,0,7.788,0,11.683,0c0.219,0,0.436-0.028,0.655-0.005c0.259,0.027,0.337,0.353,0.428,0.566c0.295,0.68,0.477,1.403,0.69,2.111c0.53,1.742,1.202,3.445,1.808,5.163     c0.619,1.756,1.147,3.534,1.676,5.318c0.241,0.811,0.439,1.611,0.503,2.455c0.008,0.106,0.102,0.22,0.175,0.22c0.053-0.152,0.119-0.3,0.191-0.444c0.175-0.345,0.387-0.672,0.612-0.989c0.448-0.633,0.95-1.223,1.425-1.839c0.535-0.695,1.044-1.409,1.589-2.099     c1.175-1.475,2.414-2.896,3.626-4.339c1.244-1.479,2.487-2.958,3.731-4.436c0.269-0.319,0.55-0.631,0.801-0.964c0.197-0.258,0.397-0.564,0.722-0.666c0.59-0.185,1.283-0.096,1.891-0.069c1.801,0.08,3.617,0.016,5.422,0.016c1.926,0,3.854,0,5.783,0     s3.856,0.001,5.784,0.008c0.947,0.003,1.9-0.027,2.845,0.05c0.871,0.072,1.738,0.177,2.599,0.327c3.178,0.552,6.431,1.716,8.784,4.001c1.106,1.077,2.016,2.402,2.423,3.903c0.381,1.401,0.307,2.884-0.1,4.27c-0.82,2.797-2.838,5.217-5.231,6.83     c-1.486,1-2.981,1.922-4.631,2.633c-1.623,0.697-3.315,1.234-5.042,1.606c-3.644,0.789-7.378,0.647-11.083,0.647c-2.891,0-5.783,0-8.673,0c0.077-0.875,0.374-1.734,0.575-2.587c0.222-0.936,0.444-1.874,0.666-2.81c0.45-1.895,0.901-3.791,1.352-5.686     c0.256-1.08,0.494-2.162,0.739-3.245c0.117-0.516,0.237-1.028,0.376-1.538c0.075-0.273,0.136-0.667,0.323-0.892c0.094-0.111,0.313-0.125,0.445-0.141c0.292-0.034,0.591-0.031,0.886-0.026c0.693,0.014,1.386,0.031,2.078,0.031c1.982,0,3.967,0,5.951,0     c-0.12,0.926-0.389,1.823-0.611,2.729c-0.237,0.969-0.459,1.944-0.689,2.916c-0.466,1.97-0.953,3.938-1.364,5.92c1.78,0,3.553,0.065,5.313-0.181c0.897-0.126,1.832-0.381,2.694-0.666c0.788-0.258,1.555-0.583,2.277-0.991c2.198-1.244,3.959-3.408,4.065-6.017     c0.043-1.106-0.261-2.213-0.952-3.088c-0.852-1.081-2.167-1.667-3.461-2.034c-3.237-0.916-6.729-0.58-10.05-0.567c-0.964,0.003-1.927,0.008-2.891,0.013c-0.461,0.001-0.925,0.005-1.388,0.006c-0.475,0.001-1.004-0.063-1.472,0.017     c-0.396,0.065-0.669,0.539-0.919,0.82c-0.339,0.378-0.676,0.756-1.014,1.136c-0.651,0.729-1.301,1.457-1.951,2.183c-2.6,2.906-5.175,5.834-7.761,8.754c-2.038,2.302-4.059,4.622-6.116,6.908c-1.245,1.383-2.537,2.732-3.72,4.168     c-0.114,0.141-0.283,0.302-0.348,0.475c-0.002,0.008-0.005,0.014-0.005,0.021c-0.128,0-0.142,0.039-0.172-0.104c-0.044-0.206-0.099-0.409-0.161-0.609c-0.131-0.433-0.297-0.856-0.461-1.278c-0.689-1.771-1.284-3.582-1.918-5.372     c-1.306-3.688-2.609-7.376-3.914-11.064c-0.403-1.139-0.814-2.273-1.22-3.409c-0.199-0.55-0.394-1.1-0.592-1.648c-0.105-0.295-0.255-1.17-0.692-1.17c0,0.519,0.147,0.983,0.302,1.478c0.206,0.666,0.319,1.331,0.383,2.025c0.161,1.712-0.011,3.462-0.685,5.058     c-1.249,2.965-3.991,5.239-6.697,6.845c-2.849,1.694-6.05,2.741-9.314,3.264c-1.763,0.283-3.526,0.375-5.31,0.367c-1.905-0.005-3.81-0.014-5.715-0.014c-1.938,0-3.875,0-5.812,0c-0.464,0-0.93,0-1.395,0c0-0.436,0.199-0.908,0.31-1.33     c0.239-0.91,0.44-1.832,0.658-2.746c0.902-3.783,1.798-7.567,2.712-11.347c0.101-0.416,0.199-0.83,0.299-1.244c0.037-0.153-0.003-0.227,0.172-0.227c0.117,0,0.232,0,0.349,0c0.233,0,0.466,0,0.699,0c0.932,0,1.865,0,2.796,0c1.825,0,3.649,0,5.474,0     c-0.913,3.854-1.826,7.711-2.739,11.565c1.842,0,3.7,0.094,5.516-0.209c0.91-0.15,1.803-0.408,2.675-0.705c0.708-0.241,1.402-0.497,2.055-0.862c2.427-1.358,4.414-3.992,4.103-6.893c-0.345-3.225-3.754-4.439-6.543-4.74c-1.688-0.183-3.39-0.138-5.084-0.136     c-1.937,0.005-3.874,0-5.811,0c-0.739,0-1.478,0-2.217,0c-0.156,0-0.311,0-0.467,0c-0.126,0-0.467,0.066-0.467-0.075c0-0.347,0.164-0.744,0.248-1.082c0.348-1.416,0.698-2.83,1.046-4.245"
   id="path144" />
		</g>
	</g>
</svg>